<svg xmlns="http://www.w3.org/2000/svg" width="200" height="200">
 <defs>
  <marker id="a" orient="auto" overflow="visible">
   <path d="m2.3 0-3.5 2v-4z"/>
  </marker>
 </defs>
 <g fill-opacity=".2">
  <circle cx="59" cy="26" r="16"/>
  <circle cx="145" cy="26" r="16"/>
  <path d="M22 86h160v32H22z"/>
 </g>
 <g stroke-width="2">
  <circle cx="57" cy="24" r="15" fill="#d5e8d4" stroke="#82b366"/>
  <circle cx="143" cy="24" r="15" fill="#f8cecc" stroke="#b85450"/>
  <g stroke="#000" stroke-dasharray="8, 4" marker-end="url(#a)">
   <path d="M57 42v112"/>
   <path d="M143 42v112"/>
  </g>
  <g stroke="#444">
   <path fill="#fff" d="M21 85h158v30H21z"/>
   <path fill="none" stroke-dasharray="2, 4" stroke-dashoffset="2" d="M25 162h64v32H25zm86 0h64v32h-64z"/>
  </g>
 </g>
 <path d="M140 103v-1.4q1.8.8 3 .8 1 0 1.6-.4.7-.4.7-1 0-.7-1.5-1.2l-1.7-.5q-1.9-.6-1.9-2.2 0-1.2.9-1.8.9-.6 2.5-.6 1.2 0 2.7.3v1.3q-1.5-.5-2.8-.5-.8 0-1.3.3t-.5.9q0 .6 1.1 1l2 .7q1 .3 1.5.9.5.5.5 1.3 0 1.2-1 2-1 .6-2.7.6-1.4 0-3.1-.5zm-9.6 0v-1.4q1.8.8 3 .8 1 0 1.6-.4.6-.4.6-1 0-.7-1.4-1.2l-1.7-.5q-2-.6-2-2.2 0-1.2 1-1.8.8-.6 2.4-.6 1.2 0 2.8.3v1.3q-1.5-.5-2.8-.5-.8 0-1.3.3t-.5.9q0 .6 1.1 1l2 .7q1 .3 1.5.9.4.5.4 1.3 0 1.2-1 2-1 .6-2.6.6-1.5 0-3.1-.5zm-2.6 0q-1.6.5-2.9.5-2.2 0-3.4-1-1.1-1.2-1.1-3.3 0-2 1-3.3 1.2-1.2 3-1.2 1.7 0 2.6 1 .8 1.1.8 3.3v.5H122q.2 2.9 3.1 2.9 1.3 0 2.7-.6zm-5.7-4.7h4v-.2q0-2.3-1.9-2.3-.9 0-1.5.7-.5.7-.6 1.8zm-3.9 4.8q-1.3.4-2.7.4-2.2 0-3.4-1.1-1.2-1.2-1.2-3.3 0-2 1.2-3.3 1.2-1.1 3.3-1.1 1.3 0 2.7.4v1.3q-1.5-.6-2.6-.6-1.4 0-2.2 1-.8.8-.8 2.3 0 1.5.9 2.4.8.9 2.3.9 1.1 0 2.5-.5zm-9.6 0q-1.4.4-2.7.4-2.3 0-3.5-1.1-1.2-1.2-1.2-3.3 0-2 1.2-3.3 1.2-1.1 3.3-1.1 1.4 0 2.7.4v1.3q-1.5-.6-2.5-.6-1.4 0-2.2 1-.8.8-.8 2.3 0 1.5.8 2.4.9.9 2.4.9 1.1 0 2.5-.5zm-10-8.2v8.4h-1.5v-1.5q-1.1 1.7-3 1.7-2.3 0-2.3-2.8v-5.8h1.5v5.3q0 1 .3 1.5.3.4 1 .4 1.2 0 2.5-1.7V95zm-10-1.3v1.3q-1.7-.6-3-.6-2 0-2 1.4 0 .5.3.9.4.3 1.5.7l1 .3.9.4q2.2.7 2.2 2.5 0 1.4-1.2 2.3-1 .8-3 .8-1.2 0-3.3-.5v-1.6q2 1 3.4 1 1.1 0 1.8-.5.7-.4.7-1.2 0-.6-.4-1-.4-.3-1.7-.7l-1-.4q-1.5-.6-2.1-1.2Q82 97 82 96q0-1.3.9-2 1-.8 2.6-.8 1.3 0 3 .5zm-8.9 9.7q-1.1.3-2.2.3-1.9 0-2.6-.7-.7-.7-.7-2.6v-4h-2V95h2v-1.9h1.6V95h3.7v1.1h-3.7v5.4l.5.4q.5.4 1.5.4l2-.2zM70 103q-1.6.6-2.9.6-2.2 0-3.4-1.2-1.1-1-1.1-3.2 0-2 1-3.2 1.2-1.3 3-1.3 1.7 0 2.6 1 .8 1.1.8 3.3v.5h-5.8q.2 2.9 3.1 2.9 1.3 0 2.7-.6zm-5.7-4.6h4V98q0-2.3-1.9-2.3-.9 0-1.5.7-.5.7-.6 1.9zm-10.8 7.8.1-1.3q1.4.6 2.6.6 2.5 0 2.5-2.4v-1.5q-1 1.8-2.8 1.8-1.4 0-2.3-1.1-.8-1.1-.8-3 0-2 1-3.3 1-1.3 2.5-1.3 1.3 0 2.5 1.2v-1h1.4v6.8q0 1.6-.2 2.5-.2.8-.8 1.4-1 1-3 1-1.2 0-2.8-.4zm5.2-5.8V97q-1-1.2-2.2-1.2-1 0-1.5 1t-.6 2.4q0 1.3.5 2 .5.8 1.4.8 1.3 0 2.4-1.6zm2.1-72v1.4h-7.6q0-.6.2-1 .3-.8 1-1.5.6-.8 1.8-1.8 1.8-1.5 2.5-2.4.6-.9.6-1.7 0-.8-.6-1.4-.6-.6-1.5-.6-1 0-1.7.6-.6.6-.6 1.7l-1.4-.1q.1-1.7 1.1-2.5t2.6-.8q1.7 0 2.6.9t1 2.2q0 .7-.3 1.4t-1 1.4l-2 2q-1.4 1-1.7 1.4l-.6.8zm78.2 1.3V18.3h4.3q1.3 0 2.1.4.8.3 1.2 1 .5.7.5 1.5t-.4 1.4q-.4.7-1.2 1 1 .4 1.6 1.1.5.7.5 1.7 0 .8-.3 1.5t-.8 1-1.3.7l-1.8.1zm1.5-6.6h2.5q1 0 1.4-.2.6-.1 1-.5.2-.4.2-1t-.3-1q-.2-.5-.8-.6-.5-.2-1.7-.2h-2.3zm0 5.2h3.9l.9-.3q.4-.2.6-.6l.2-1q0-.7-.3-1.1-.4-.5-1-.7-.5-.2-1.6-.2h-2.7zM158 185v-1.2h.6q.9 0 1.3-.2.4-.3.8-1.3l.4-.8-3.5-8h1.5l2.8 6.3 2.8-6.4h1.4l-4.3 9.6q-.5 1.1-1.2 1.6-.7.4-2 .4zm-2.1-3-2.3.1q-1.8 0-2.5-.7-.7-.6-.7-2.5v-4.1h-2.1v-1.2h2v-1.8h1.6v1.8h3.8v1.2h-3.8v4.3l.1 1q.1.3.4.5.5.4 1.6.4 1 0 1.9-.3zm-12.5-8.8c-1.1 0-2 .6-2.8 1.8v-1.6H139V185h1.5v-4a3 3 0 0 0 2.3 1.1c1 0 2-.4 2.6-1.3.6-.8 1-2 1-3.4a5 5 0 0 0-.9-3 2.7 2.7 0 0 0-2.2-1.1zm-.4 1.4c1.2 0 1.8 1 1.8 3 0 1-.2 1.9-.5 2.5a2 2 0 0 1-1.6.9c-.7 0-1.4-.4-2.1-1.2v-3.6c.8-1.1 1.6-1.6 2.4-1.6zm-14.3 7.3v-8.5h1.4v1.6q1-1.7 1.9-1.7 1.1 0 1.5 1.7.8-1.7 2-1.7.7 0 1 .5.4.6.4 2v6.1h-1.3v-6.1l-.1-1q-.1-.3-.4-.2-.7 0-1.6 1.9v5.4h-1.3v-5.8l-.1-1.2q-.1-.3-.4-.3-.4 0-.8.5-.5.6-.8 1.4v5.4zm-5.2-8.6c-1.2 0-2.1.4-3 1.2-.7.9-1 2-1 3.3 0 1.4.4 2.4 1.1 3.2.8.7 2 1.1 3.4 1.1.9 0 1.9-.2 3-.5v-1.2c-1 .4-2 .6-2.8.6-2 0-3-1-3-3h5.7v-.4c0-1.5-.3-2.6-.8-3.3-.6-.7-1.5-1-2.6-1zm-.2 1.1c1.3 0 2 .8 2 2.3v.2h-4.1c0-.8.3-1.4.6-1.8a2 2 0 0 1 1.5-.7zM60.8 182v1.4h-7.6q0-.6.2-1 .3-.8 1-1.5.6-.8 1.8-1.8 1.8-1.5 2.5-2.4.6-.9.6-1.7 0-.8-.6-1.4-.6-.6-1.5-.6-1 0-1.7.6t-.6 1.7l-1.4-.1q.1-1.7 1.1-2.5t2.6-.8q1.7 0 2.6.9t1 2.2q0 .7-.3 1.4t-1 1.4l-2 2q-1.4 1-1.7 1.4l-.6.8z"/>
</svg>
