<svg xmlns="http://www.w3.org/2000/svg" width="200" height="200">
 <defs>
  <marker id="a" orient="auto" overflow="visible">
   <path d="m2.3 0-3.5 2v-4z"/>
  </marker>
 </defs>
 <g fill-opacity=".2">
  <circle cx="59" cy="26" r="16"/>
  <circle cx="145" cy="26" r="16"/>
  <path d="M22 86h160v32H22z"/>
 </g>
 <g stroke-width="2">
  <circle cx="57" cy="24" r="15" fill="#d5e8d4" stroke="#82b366"/>
  <circle cx="143" cy="24" r="15" fill="#f8cecc" stroke="#b85450"/>
  <g stroke="#000" stroke-dasharray="8, 4" marker-end="url(#a)">
   <path d="M57 42v112"/>
   <path d="M143 42v112"/>
  </g>
  <path fill="#fff" stroke="#444" d="M21 85h158v30H21z"/>
 </g>
 <path d="M147 106q-1.6.5-3 .5-2.1 0-3.3-1-1.2-1.2-1.2-3.3 0-2 1.1-3.3 1.2-1.2 3-1.2 1.7 0 2.5 1t.8 3.3v.5h-5.7q.1 2.9 3 2.9 1.3 0 2.8-.6zm-5.8-4.7h4.1v-.2q0-2.3-2-2.3-.8 0-1.4.7-.6.6-.7 1.8zm-10 5V98h1.6v1.5q1.1-1.7 3.1-1.7l1.6.2v2.4h-1.2V99h-.6q-.9 0-1.6.3-.6.4-1.4 1.4v5.5zm-3.8-8.4v8.4h-1.6v-1.5q-1 1.7-2.9 1.7-2.4 0-2.4-2.8v-5.8h1.6v5.3q0 1 .3 1.5.3.4 1 .4 1.2 0 2.4-1.7v-5.5zm-13.2 8.4V95.1h-3.3V94h4.8v12.3zm-9.8 0V99h-3.1v-1h4.6v8.4zm-.2-10.4V94h1.9v2zm-7.4 9.4q-1.4 1.2-2.8 1.2-1.2 0-2-.7-.7-.6-.7-1.7 0-1.3 1.2-2t3.1-.9h1v-.7q0-.9-.4-1.3t-1.4-.4q-1.3 0-2.7.8v-1.3q1.6-.6 3-.6 1.7 0 2.3.6.7.7.7 2.2v3.6q0 .8.2 1 .1.3.6.3h.5l.1.9-1.2.2q-1.1 0-1.5-1.2zm-.2-1v-2.1H96q-3.2 0-3.2 1.7 0 .6.4 1t1.1.4q1 0 2.2-1zm-14 2v-10h7v1.2h-5.5v3.4h4.8v1.2H84v4.3zm-10.1-.3v-1.4q1.7.8 3 .8 1 0 1.6-.4.6-.4.6-1 0-.7-1.4-1.2l-1.7-.5q-2-.6-2-2.2 0-1.2 1-1.8.8-.6 2.4-.6 1.2 0 2.8.3v1.3q-1.5-.5-2.8-.5-.8 0-1.4.3-.5.3-.5.9 0 .6 1.2 1l2 .7q1 .3 1.5.9.4.5.4 1.3 0 1.2-1 2-1 .6-2.6.6-1.5 0-3.1-.5zm-4.6-.7q-1.4 1.2-2.8 1.2-1.2 0-2-.7-.7-.6-.7-1.7 0-1.3 1.2-2t3-.9h1v-.7q0-1-.4-1.3-.4-.4-1.3-.4-1.3 0-2.8.8v-1.3q1.7-.6 3.1-.6 1.6 0 2.3.6.7.7.7 2.2v3.6l.1 1q.2.3.7.3h.4l.2.8-1.2.3q-1.1 0-1.5-1.2zm-.3-1v-2.1h-.4q-3.2 0-3.2 1.7 0 .6.4 1t1.1.4q1 0 2.1-1zm-14.5 2V94h1.6v5.5q1-1.8 2.9-1.8 2.4 0 2.4 2.9v5.8h-1.6V101q0-1-.3-1.4-.3-.4-1-.4-1.2 0-2.4 1.6v5.6zm7.7-77.9v1.4h-7.6q0-.6.2-1 .3-.8 1-1.5.6-.8 1.8-1.8 1.8-1.5 2.5-2.4.6-.9.6-1.7 0-.8-.6-1.4-.6-.6-1.5-.6-1 0-1.7.6t-.6 1.7l-1.4-.1q.1-1.7 1.1-2.5t2.6-.8q1.7 0 2.6.9t1 2.2q0 .7-.3 1.4t-1 1.4l-2 2q-1.4 1-1.7 1.4l-.6.8zm78.2 1.3V18.3h4.3q1.3 0 2.1.4.8.3 1.2 1 .5.7.5 1.5t-.4 1.4q-.4.7-1.2 1 1 .4 1.6 1.1.5.7.5 1.7 0 .8-.3 1.5t-.8 1q-.5.5-1.3.7l-1.8.1zm1.5-6.6h2.5q1 0 1.4-.2.6-.1 1-.5.2-.4.2-1t-.3-1q-.2-.5-.8-.6-.5-.2-1.7-.2h-2.3zm0 5.2h3.9l.9-.3q.4-.2.6-.6l.2-1q0-.7-.3-1.1-.4-.5-1-.7-.5-.2-1.6-.2h-2.7zM158 174c-1.2 0-2.1.4-2.9 1.3-.7.8-1.1 1.9-1.1 3.2 0 1.4.4 2.5 1.2 3.2.8.8 1.9 1.2 3.3 1.2 1 0 2-.2 3-.6v-1.2c-1 .4-2 .6-2.8.6-2 0-3-1-3-2.9h5.7v-.5c0-1.4-.3-2.5-.8-3.2-.6-.8-1.4-1.1-2.6-1.1zm-.1 1.2c1.2 0 1.9.7 1.9 2.3v.2h-4.1c0-.8.3-1.4.7-1.9a2 2 0 0 1 1.5-.6zm-6.4-1v8.5h-1.6V181q-1 1.8-2.9 1.8-2.4 0-2.4-3v-5.7h1.6v5.4q0 1 .3 1.4.3.4 1 .4 1.2 0 2.4-1.7v-5.5zm-15.4 8.5v-8.5h1.5v1.6q1.2-1.8 3.2-1.8l1.5.2v2.4h-1.1v-1.2h-.6q-1 0-1.6.4-.7.4-1.4 1.4v5.5zm-3.5 0-2.2.2q-1.9 0-2.6-.7-.6-.7-.6-2.6v-4H125v-1.2h2.2v-1.8h1.5v1.8h3.8v1.1h-3.8v4.4l.1 1q.1.3.4.5.5.3 1.5.3l2-.2zM76.5 176c-1.2 0-2.1.4-2.9 1.3-.7.8-1.1 1.9-1.1 3.2 0 1.4.4 2.5 1.2 3.2.8.8 1.9 1.2 3.3 1.2 1 0 2-.2 3-.6v-1.2c-1 .4-2 .6-2.7.6-2 0-3-1-3.2-2.9H80v-.5c0-1.4-.3-2.5-.8-3.2-.6-.8-1.4-1.1-2.6-1.1zm-.1 1.2c1.2 0 1.9.7 1.9 2.3v.2h-4.1c0-.8.3-1.4.7-1.9a2 2 0 0 1 1.5-.6zm-13.2 7.1V183q1.8.8 3 .8 1 0 1.6-.4.6-.3.6-1t-1.4-1.1l-1.7-.6q-2-.6-2-2.2 0-1.1 1-1.8.8-.6 2.4-.6 1.2 0 2.8.4v1.2q-1.5-.4-2.8-.4-.8 0-1.3.3t-.5.8q0 .6 1.1 1l2 .7q1 .4 1.5.9.4.5.4 1.3 0 1.2-1 2-1 .7-2.6.7-1.5 0-3.1-.6zm-6.5.4v-11.2h-3.3v-1.2h4.8v12.3zm-9.4-8.7c-1 0-2 .2-3 .6v1.3a6 6 0 0 1 2.7-.7c.6 0 1 0 1.3.3.3.3.4.7.4 1.3v.7h-1c-1.2 0-2.3.3-3 .9-.8.5-1.2 1.2-1.2 2s.2 1.3.7 1.8c.5.4 1.2.6 2 .6.9 0 1.8-.4 2.8-1.2.2.8.7 1.2 1.5 1.2l1.2-.2-.2-1-.5.1c-.3 0-.5 0-.6-.2l-.1-1.1v-3.6c0-1-.3-1.7-.7-2.2-.5-.4-1.2-.6-2.3-.6zm1 4.5h.4v2.2c-.8.6-1.5.9-2.1.9-.5 0-.8-.1-1.1-.4-.3-.2-.4-.6-.4-1 0-1.1 1-1.7 3.1-1.7zm-12 4.2v-7.2h-2.4v-1.1h2.3v-1q0-1.7.9-2.5.8-.8 2.7-.8 1.2 0 2.4.4v1.2q-1.2-.4-2.3-.4-1.2 0-1.7.5-.4.4-.4 1.5v1h4v1.2h-4v7.2z"/>
</svg>
