<svg xmlns="http://www.w3.org/2000/svg" width="200" height="200">
 <defs>
  <marker id="a" orient="auto" overflow="visible">
   <path d="m2.3 0-3.5 2v-4z"/>
  </marker>
 </defs>
 <g fill-opacity=".2">
  <circle cx="59" cy="26" r="16"/>
  <circle cx="145" cy="26" r="16"/>
  <circle cx="102" cy="26" r="16"/>
  <circle cx="59" cy="178" r="16"/>
  <circle cx="145" cy="178" r="16"/>
  <circle cx="102" cy="178" r="16"/>
  <path d="M22 86h160v32H22z"/>
 </g>
 <g stroke-width="2">
  <g fill="#d5e8d4" stroke="#82b366">
   <circle cx="57" cy="24" r="15"/>
   <circle cx="57" cy="176" r="15"/>
   <circle cx="100" cy="176" r="15"/>
  </g>
  <g fill="#f8cecc" stroke="#b85450">
   <circle cx="143" cy="24" r="15"/>
   <circle cx="100" cy="24" r="15"/>
   <circle cx="143" cy="176" r="15"/>
  </g>
  <g stroke="#000" stroke-dasharray="8, 4" marker-end="url(#a)">
   <path d="M57 42v112"/>
   <path d="M100 42v112"/>
   <path d="M143 42v112"/>
  </g>
  <path fill="#fff" stroke="#444" d="M21 85h158v30H21z"/>
 </g>
 <path d="M125.8 104.2v-8.5h1.5v1.6q1.2-1.7 3.2-1.7l1.6.2v2.4h-1.2V97h-.6q-1 0-1.6.3t-1.4 1.4v5.5zm-3.5-.3q-1.6.5-3 .5-2.1 0-3.3-1-1.2-1.2-1.2-3.3 0-2 1.2-3.3t2.8-1.2q1.8 0 2.6 1 .9 1 .9 3.3v.5h-5.8q.2 2.9 3 2.9 1.3 0 2.8-.6zm-5.8-4.7h4.1V99q0-2.3-1.9-2.3-1 0-1.5.7-.6.6-.7 1.8zm-8.4 5-3.5-8.5h1.6l2.8 6.8 2.9-6.8h1.4l-3.7 8.5zm-8.8.2q-1.9 0-3-1.2-1-1.1-1-3.2 0-2 1-3.3 1.1-1.1 3-1.1t3 1.1q1 1.2 1 3.3 0 2-1 3.3-1.1 1.1-3 1.1zm0-1.1q1 0 1.7-.9t.6-2.4q0-1.5-.6-2.4t-1.7-.9q-1.1 0-1.7.9t-.7 2.4q0 1.5.6 2.4t1.8.9zm-5.9.7q-1.3.4-2.7.4-2.2 0-3.4-1.1Q86 102 86 100q0-2 1.2-3.3 1.2-1.1 3.3-1.1 1.3 0 2.7.4v1.3q-1.5-.6-2.6-.6-1.4 0-2.2.9-.8.9-.8 2.4t.9 2.4q.8.9 2.3.9 1.1 0 2.5-.5zm-9.6-.1q-1.6.5-3 .5-2.2 0-3.4-1-1.1-1.2-1.1-3.3 0-2 1.1-3.3t2.9-1.2q1.7 0 2.6 1 .8 1 .8 3.3v.5h-5.8q.2 2.9 3.1 2.9 1.3 0 2.8-.6zM78 99.2h4V99q0-2.3-1.9-2.3-.9 0-1.5.7-.5.7-.6 1.8zm-10 5v-8.4h1.5v1.6q1.2-1.8 3.1-1.8l1.6.2v2.4H73V97h-.6q-.9 0-1.5.3-.7.4-1.4 1.4v5.5zm70-74.5V18.3h4c.9 0 1.5 0 2 .2a3.9 3.9 0 0 1 3 2.8 8 8 0 0 1 .2 5c-.2.7-.5 1.2-.8 1.6-.3.5-.7.8-1 1-.4.3-.9.6-1.4.7l-1.9.1zm1.5-1.4h2.5c.7 0 1.2 0 1.7-.2s.8-.3 1-.6a3 3 0 0 0 .9-1.4 7.6 7.6 0 0 0-.3-5c-.4-.7-.9-1.1-1.4-1.3l-2-.2h-2.4zm-78.7.1v1.4h-7.6c0-.4 0-.7.2-1a11.6 11.6 0 0 1 2.8-3.3c1.2-1 2-1.8 2.5-2.4.4-.6.6-1.2.6-1.7s-.2-1-.6-1.4-.9-.6-1.5-.6c-.7 0-1.2.2-1.7.6-.4.4-.6 1-.6 1.7l-1.4-.1c0-1.1.4-2 1.1-2.5s1.5-.8 2.6-.8 2 .3 2.6.9 1 1.3 1 2.2c0 .5-.1 1-.3 1.4s-.5 1-1 1.4l-2 2a9.5 9.5 0 0 0-1.7 1.4l-.6.8zm34.9 1.3V18.3h4.3c.9 0 1.6.1 2.1.4.5.2 1 .5 1.2 1a2.6 2.6 0 0 1 .1 2.9c-.3.5-.7.8-1.2 1a4 4 0 0 1 1.6 1.1c.3.5.5 1 .5 1.7l-.3 1.5c-.2.5-.5.8-.8 1l-1.3.7-1.8.1zm1.5-6.6h2.5c.7 0 1.1 0 1.4-.2.4 0 .7-.2 1-.5l.2-1c0-.4-.1-.7-.3-1a1 1 0 0 0-.7-.6l-1.8-.2h-2.3zm0 5.2h3.9l.9-.3c.3-.1.5-.3.6-.6l.2-1c0-.5-.1-.8-.3-1.1-.3-.3-.6-.6-1-.7l-1.6-.2h-2.7zm-1 150.7 1.5-.1c0 .7.3 1.2.7 1.6.4.3.9.5 1.5.5.7 0 1.2-.2 1.7-.7a3 3 0 0 0 .7-2c0-.9-.2-1.5-.7-2s-1-.7-1.7-.7c-.5 0-.9.1-1.3.4l-.8.8-1.4-.2 1.2-5.9h5.7v1.3h-4.6l-.6 3.1a3.7 3.7 0 0 1 4.7.3 3.2 3.2 0 0 1 1 2.7c0 1-.3 2-1 2.7-.7 1-1.7 1.4-3 1.4-1 0-1.8-.3-2.5-.9s-1-1.4-1.1-2.3zm41.8 3v-11.4h4c.9 0 1.5 0 2 .2a3.9 3.9 0 0 1 3 2.8 8 8 0 0 1 .2 5c-.2.7-.5 1.2-.8 1.6-.3.5-.7.8-1 1-.4.3-.9.6-1.4.7l-1.9.1zm1.5-1.4h2.5c.7 0 1.2 0 1.7-.2s.8-.3 1-.6a3 3 0 0 0 .9-1.4 7.6 7.6 0 0 0-.3-5c-.4-.7-.9-1.1-1.4-1.3l-2-.2h-2.4zm-78.7-.6v1.4h-7.6c0-.4 0-.7.2-1a11.6 11.6 0 0 1 2.8-3.3c1.2-1 2-1.8 2.5-2.4.4-.6.6-1.2.6-1.7s-.2-1-.6-1.4-.9-.6-1.5-.6c-.7 0-1.2.2-1.7.6-.4.4-.6 1-.6 1.7l-1.4-.1c0-1.1.4-2 1.1-2.5s1.5-.8 2.6-.8 2 .3 2.6.9 1 1.3 1 2.2c0 .5-.1 1-.3 1.4s-.5 1-1 1.4l-2 2a9.5 9.5 0 0 0-1.7 1.4l-.6.8z"/>
</svg>
