<svg xmlns="http://www.w3.org/2000/svg" width="200" height="200">
 <defs>
  <marker id="a" orient="auto" overflow="visible">
   <path d="m2.3 0-3.5 2v-4z"/>
  </marker>
 </defs>
 <g fill-opacity=".2">
  <circle cx="59" cy="26" r="16"/>
  <circle cx="145" cy="26" r="16"/>
  <circle cx="102" cy="26" r="16"/>
  <circle cx="59" cy="178" r="16"/>
  <circle cx="145" cy="178" r="16"/>
  <circle cx="102" cy="178" r="16"/>
  <path d="M22 86h160v32H22z"/>
 </g>
 <g stroke-width="2">
  <g fill="#d5e8d4" stroke="#82b366">
   <circle cx="57" cy="24" r="15"/>
   <circle cx="57" cy="176" r="15"/>
   <circle cx="100" cy="176" r="15"/>
  </g>
  <g fill="#f8cecc" stroke="#b85450">
   <circle cx="143" cy="24" r="15"/>
   <circle cx="100" cy="24" r="15"/>
   <circle cx="143" cy="176" r="15"/>
  </g>
  <g stroke="#000" stroke-dasharray="8, 4" marker-end="url(#a)">
   <path d="M57 42v112"/>
   <path d="M100 42v112"/>
   <path d="M143 42v112"/>
  </g>
  <path fill="#fff" stroke="#444" d="M21 85h158v30H21z"/>
 </g>
 <path d="M166 104q-1.6.5-3 .5-2.1 0-3.3-1-1.2-1.2-1.2-3.3 0-2 1.1-3.3 1.2-1.2 3-1.2 1.7 0 2.5 1t.8 3.3v.5h-5.7q.1 2.9 3 2.9 1.3 0 2.8-.6zm-5.8-4.7h4.1v-.2q0-2.3-2-2.3-.8 0-1.4.7-.6.6-.7 1.8zm-10 5V96h1.6v1.5q1.1-1.7 3.1-1.7l1.6.2v2.4h-1.2V97h-.6q-.9 0-1.6.3-.6.4-1.4 1.4v5.5zm-3.8-8.4v8.4h-1.6v-1.5q-1 1.7-2.9 1.7-2.4 0-2.4-2.8v-5.8h1.6v5.3q0 1 .3 1.5.3.4 1 .4 1.2 0 2.4-1.7v-5.5zm-13.2 8.4V93.1h-3.3V92h4.8v12.3zm-9.8 0V97h-3.1v-1h4.6v8.4zm-.2-10.4V92h1.9v2zm-7.4 9.4q-1.4 1.2-2.8 1.2-1.2 0-2-.7-.7-.6-.7-1.7 0-1.3 1.2-2 1.2-.9 3.1-.9h1v-.7q0-.9-.4-1.3t-1.4-.4q-1.3 0-2.7.8v-1.3q1.6-.6 3-.6 1.7 0 2.3.6.7.7.7 2.2v3.6q0 .8.2 1 .1.3.6.3h.5l.1.9-1.2.2q-1.1 0-1.5-1.2zm-.2-1v-2.1h-.5q-3.2 0-3.2 1.7 0 .6.4 1t1.1.4q1 0 2.2-1zm-14 2v-10h7v1.2h-5.5v3.4h4.8v1.2H103v4.3zm-10.2 3.1V95.8h1.5v1.6q1.1-1.8 2.8-1.8 1.4 0 2.2 1.2.9 1 .9 3 0 2.1-1 3.4t-2.6 1.3q-1.4 0-2.3-1.2v4zm1.5-5.2q1 1.2 2.1 1.2 1 0 1.6-.9.5-.9.5-2.5 0-3-1.8-3-1.3 0-2.4 1.6zm-6 1.1q-1.5 1.2-2.8 1.2-1.2 0-2-.7-.7-.6-.7-1.7 0-1.3 1.2-2 1.1-.9 3-.9h1v-.7q0-.9-.4-1.3t-1.3-.4q-1.4 0-2.8.8v-1.3q1.6-.6 3-.6 1.7 0 2.4.6.6.7.6 2.2v3.6q0 .8.2 1 .2.3.6.3h.5l.1.9-1.1.2q-1.2 0-1.6-1.2zm-.3-1v-2.1h-.5q-3.1 0-3.1 1.7 0 .6.4 1t1 .4q1 0 2.2-1zm-15.2 2v-10h1.9l2.2 6.2 2.1-6.2h2v10h-1.3v-8.6l-2.3 6.5h-1.3L72.5 96v8.4zm-1.8 0-2.2.2q-1.9 0-2.6-.6-.6-.7-.6-2.6v-4H62V96h2.2v-1.9h1.5V96h3.8v1.1h-3.8v4.4l.1 1q0 .2.4.4.5.4 1.5.4l2-.2zm-11.7-1q-1.4 1.2-2.8 1.2-1.1 0-1.9-.7-.7-.6-.7-1.7 0-1.3 1.1-2 1.2-.9 3.1-.9h1v-.7q0-1-.4-1.3-.4-.4-1.3-.4-1.4 0-2.8.8v-1.3q1.6-.6 3-.6 1.7 0 2.4.6.6.6.6 2.2v3.6q0 .7.2 1 .2.3.6.3h.5l.1.8q-.7.3-1.1.3-1.2 0-1.6-1.2zm-.2-1v-2.1h-.5q-3.1 0-3.1 1.7 0 .6.4 1t1 .3q1 0 2.2-.9zm-11.3 2V93.1H43V92h5v12.3zm-10.8 0v-7.1h-2.3V96h2.3v-.9q0-1.7.8-2.5t2.7-.8q1.3 0 2.4.3v1.3q-1.1-.4-2.2-.4-1.2 0-1.7.4-.5.5-.5 1.6v1h4v1.2h-4v7.1zM138 29.7V18.3h4q1.3 0 2 .2 1 .2 1.7.8.9.7 1.3 2 .5 1.1.5 2.7 0 1.3-.3 2.3-.3 1-.8 1.6-.5.7-1 1-.6.5-1.4.7l-1.9.1zm1.5-1.4h2.5q1 0 1.7-.2t1-.6q.6-.5.9-1.4.3-1 .3-2.2 0-1.8-.6-2.8-.6-1-1.4-1.3-.6-.2-2-.2h-2.4zm-78.7.1v1.4h-7.6q0-.6.2-1 .3-.8 1-1.5.6-.8 1.8-1.8 1.8-1.5 2.5-2.4.6-.9.6-1.7 0-.8-.6-1.4-.6-.6-1.5-.6-1 0-1.7.6-.6.6-.6 1.7l-1.4-.1q.1-1.7 1.1-2.5t2.6-.8q1.7 0 2.6.9t1 2.2q0 .7-.3 1.4t-1 1.4l-2 2q-1.4 1-1.7 1.4l-.6.8zm34.9 1.3V18.3h4.3q1.3 0 2.1.4.8.3 1.2 1 .5.7.5 1.5t-.4 1.4q-.4.7-1.2 1 1 .4 1.6 1.1.5.7.5 1.7 0 .8-.3 1.5t-.8 1-1.3.7l-1.8.1zm1.5-6.6h2.5q1 0 1.4-.2.6-.1 1-.5.2-.4.2-1t-.3-1q-.2-.5-.7-.6-.6-.2-1.8-.2h-2.3zm0 5.2h3.9l.9-.3q.4-.2.6-.6l.2-1q0-.7-.3-1.1-.4-.5-1-.7-.5-.2-1.6-.2h-2.7zm-1 150.7 1.5-.1q.1 1 .7 1.6.6.5 1.5.5 1 0 1.7-.7.7-.8.7-2 0-1.3-.7-2t-1.7-.7q-.7 0-1.3.4-.5.3-.8.8l-1.4-.2 1.2-5.9h5.7v1.3h-4.6l-.6 3.1q1-.7 2.1-.7 1.5 0 2.6 1t1 2.7q0 1.6-1 2.7-1 1.4-3 1.4-1.5 0-2.5-.9t-1.1-2.3zm-35.4 1v1.4h-7.6q0-.6.2-1 .3-.8 1-1.5.6-.8 1.8-1.8 1.8-1.5 2.5-2.4.6-.9.6-1.7 0-.8-.6-1.4-.6-.6-1.5-.6-1 0-1.7.6-.6.6-.6 1.7l-1.4-.1q.1-1.7 1.1-2.5t2.6-.8q1.7 0 2.6.9t1 2.2q0 .7-.3 1.4t-1 1.4l-2 2q-1.4 1-1.7 1.4l-.6.8zm82.2-12c-2.5.1-4 1.8-3.8 4.6-2 0-3.7.8-4 3.7 0 3 3.6 5.2 6.6 2.5.3 2.2-.5 2.8-2.1 3.1-.6.1-.9.2-1 .9.1.7.3.8 1 1h6.7c.6-.2.8-.3.9-1-.1-.7-.3-.8-1-.9-1.6-.3-2.4-.9-2.1-3 3 2.6 6.6.5 6.7-2.6-.4-3-2-3.7-4.1-3.7.2-2.8-1.3-4.5-3.8-4.6z"/>
</svg>
