<svg xmlns="http://www.w3.org/2000/svg" width="200" height="200">
 <defs>
  <marker id="a" orient="auto" overflow="visible">
   <path d="m2.3 0-3.5 2v-4z"/>
  </marker>
 </defs>
 <g fill-opacity=".2">
  <circle cx="59" cy="26" r="16"/>
  <circle cx="145" cy="26" r="16"/>
  <path d="M22 86h160v32H22z"/>
 </g>
 <g stroke-width="2">
  <circle cx="57" cy="24" r="15" fill="#d5e8d4" stroke="#82b366"/>
  <circle cx="143" cy="24" r="15" fill="#f8cecc" stroke="#b85450"/>
  <g stroke="#000" stroke-dasharray="8, 4" marker-end="url(#a)">
   <path d="M57 42v112"/>
   <path d="M143 42v112"/>
  </g>
  <g stroke="#444">
   <path fill="#fff" d="M21 85h158v30H21z"/>
   <path fill="none" stroke-dasharray="2, 4" stroke-dashoffset="2" d="M25 162h64v32H25zm86 0h64v32h-64z"/>
  </g>
 </g>
 <path d="M161.6 105.7c-1.1.3-2.1.5-3 .5a5 5 0 0 1-3.3-1 4.5 4.5 0 0 1-1.3-3.3 5 5 0 0 1 1.2-3.3 4 4 0 0 1 3-1.2c1 0 2 .3 2.5 1s.8 1.8.8 3.3v.5h-5.7c0 2 1 2.9 3 2.9.8 0 1.8-.2 2.8-.6zm-5.8-4.7h4v-.2c0-1.5-.6-2.3-2-2.3-.5 0-1 .2-1.4.7-.4.4-.6 1-.7 1.8zm-10 5v-8.3h1.5v1.5a3.5 3.5 0 0 1 3.1-1.7l1.6.2v2.4h-1.2v-1.4h-.6a4 4 0 0 0-1.5.3c-.4.3-1 .7-1.4 1.4v5.5zm-3.9-8.4v8.4h-1.6v-1.5a3.2 3.2 0 0 1-2.9 1.7c-1.6 0-2.4-1-2.4-2.8v-5.8h1.6v5.3c0 .7.1 1.2.3 1.5.2.3.6.4 1 .4.8 0 1.6-.6 2.4-1.7v-5.5zm-13.2 8.4V94.8h-3.2v-1.1h4.8V106Zm-9.7 0v-7.3h-3.1v-1h4.6v8.4zm-.2-10.4v-1.9h1.9v2zm-7.4 9.4c-1 .8-2 1.2-2.9 1.2a3 3 0 0 1-2-.7c-.4-.4-.6-1-.6-1.7 0-.9.4-1.5 1.1-2a5 5 0 0 1 3.1-.9h1v-.7c0-.6 0-1-.4-1.3-.2-.3-.7-.4-1.4-.4-.8 0-1.7.3-2.7.8V98c1.1-.4 2.1-.6 3-.6 1.2 0 2 .2 2.3.6.5.5.7 1.2.7 2.2v3.6l.2 1c.1.2.3.3.6.3h.5l.1.9-1.2.2c-.7 0-1.2-.4-1.5-1.2zm-.3-1v-2.1h-.6c-2 0-3.2.6-3.2 1.7 0 .4.2.7.4 1 .3.3.7.4 1.1.4.7 0 1.4-.3 2.2-1zm-14 2V96h7v1.2h-5.4v3.4h4.8v1.2h-5v4.3zM86 106v-8.5h1.4v1.6c.6-1.2 1.2-1.8 1.8-1.8.8 0 1.3.6 1.5 1.8.6-1.2 1.2-1.8 2-1.8.5 0 .9.2 1 .6.3.4.5 1 .5 1.9v6.2h-1.3v-6l-.1-1c-.1-.2-.2-.3-.4-.2-.6 0-1.1.6-1.6 1.8v5.5h-1.4v-7c-.2-.2-.3-.3-.5-.3s-.5.2-.8.5l-.7 1.4v5.4zm-3.8-1c-1 .8-2 1.2-2.8 1.2a3 3 0 0 1-2-.7c-.5-.5-.7-1-.7-1.7 0-.9.4-1.6 1.2-2.1a5 5 0 0 1 3-.8h1v-.7c0-.7-.2-1.1-.4-1.3-.3-.3-.7-.4-1.3-.4-1 0-1.8.2-2.8.7V98c1-.4 2.1-.6 3-.6 1.1 0 1.9.2 2.4.7.4.4.7 1.1.7 2.2v4.6c.2.2.4.3.7.3l.5-.1.2 1-1.2.2c-.8 0-1.3-.4-1.5-1.2zm-.3-1v-2.2h-.4c-2.2 0-3.2.6-3.2 1.8 0 .4 0 .7.4 1 .2.3.6.4 1 .3.6 0 1.4-.3 2.2-1zm-7.3 1.7c-1.1.3-2.1.5-3 .5-1.5 0-2.6-.4-3.3-1.1-.8-.7-1.2-1.8-1.2-3.2a5 5 0 0 1 1-3.3c.8-.9 1.8-1.3 3-1.3s2 .4 2.6 1.1c.5.7.8 1.8.8 3.3v.5h-5.8c0 2 1.2 2.9 3.2 2.9.8 0 1.7-.2 2.7-.6zm-5.8-4.7h4v-.2c0-1.5-.6-2.3-1.8-2.3-.7 0-1.2.2-1.5.7-.4.4-.7 1-.7 1.8zm-10 5v-8.5h1.5v1.6a3.7 3.7 0 0 1 3.2-1.8l1.6.2v2.5h-1.2v-1.1l-.6-.1c-.7 0-1.2.1-1.6.4-.5.3-1 .7-1.4 1.4v5.5zm-3.5 0-2.2.2c-1.3 0-2.1-.2-2.5-.7-.5-.4-.7-1.2-.7-2.5v-4.1h-2.1v-1.2h2V96h1.6v1.8h3.8V99h-3.8v5.3l.5.5c.3.3.8.4 1.6.4a6 6 0 0 0 1.9-.3zm-16.8-.3v-1.4a8 8 0 0 0 3 .7 4 4 0 0 0 1.7-.3c.4-.3.6-.6.6-1 0-.5-.5-.9-1.5-1.2l-1.6-.5c-1.4-.5-2-1.2-2-2.2a2 2 0 0 1 1-1.8c.5-.5 1.3-.7 2.4-.7.8 0 1.7.1 2.8.4V99c-1-.3-2-.5-2.8-.5-.6 0-1.1.1-1.4.3-.4.2-.5.5-.5.8 0 .5.4.8 1.2 1l2 .7c.6.3 1.1.6 1.5 1 .2.3.4.7.4 1.3 0 .8-.4 1.4-1 1.9-.7.5-1.6.7-2.6.7s-2.1-.2-3.2-.5zm22.3-77.3v1.4h-7.6c0-.4 0-.7.2-1a11.4 11.4 0 0 1 2.8-3.3c1.2-1 2-1.8 2.5-2.4.4-.6.6-1.2.6-1.7s-.2-1-.6-1.4a2 2 0 0 0-1.5-.6c-.7 0-1.2.2-1.7.6-.4.4-.6 1-.6 1.7l-1.4-.1c0-1.1.4-2 1.1-2.5a4 4 0 0 1 2.6-.8c1.1 0 2 .3 2.6.9a3 3 0 0 1 1 2.2c0 .5-.1 1-.3 1.4-.2.5-.5 1-1 1.4l-2 2c-1 .7-1.5 1.1-1.7 1.4l-.6.8zm78.2 1.3V18.3h4.3c.9 0 1.6.1 2.1.4.5.2 1 .5 1.2 1 .3.5.5 1 .5 1.5s-.1 1-.4 1.4c-.3.5-.7.8-1.2 1a4 4 0 0 1 1.6 1.1c.3.5.5 1 .5 1.7l-.3 1.5a2 2 0 0 1-.8 1l-1.3.7-1.8.1zm1.5-6.6h2.5c.7 0 1.1 0 1.4-.2.4 0 .7-.2 1-.5l.2-1c0-.4-.1-.7-.3-1-.1-.3-.4-.5-.8-.6a5 5 0 0 0-1.7-.2h-2.3zm0 5.2h3.9l.9-.3c.3-.1.5-.3.6-.6l.2-1c0-.5-.1-.8-.3-1.1-.3-.3-.6-.6-1-.7l-1.6-.2h-2.7zM72.2 185v-1.2h.6c.6 0 1 0 1.3-.2.3-.2.5-.6.8-1.3l.4-.8-3.5-8h1.5l2.8 6.3 2.8-6.4h1.4L76 183c-.3.7-.7 1.3-1.2 1.6a4 4 0 0 1-2 .4zm-2.1-3-2.3.1c-1.2 0-2-.2-2.5-.7-.5-.4-.7-1.2-.7-2.5v-4.1h-2.1v-1.2h2v-1.8h1.6v1.8H70v1.2h-3.8v4.3l.1 1c0 .2.2.4.4.5.3.3.9.4 1.6.4a6 6 0 0 0 1.9-.3zm-12.5-8.8c-1.1 0-2 .6-2.8 1.8v-1.6h-1.5V185h1.5v-4a3 3 0 0 0 2.2 1c1 0 2-.4 2.6-1.3.6-.8 1-2 1-3.4a5 5 0 0 0-.9-3 2.7 2.7 0 0 0-2.2-1.1zm-.4 1.4c1.2 0 1.8 1 1.8 3 0 1-.2 1.9-.5 2.5a2 2 0 0 1-1.6.9c-.7 0-1.4-.4-2.1-1.2v-3.6c.8-1.1 1.6-1.6 2.4-1.6zM43 181.9v-8.5h1.4v1.6c.7-1.1 1.3-1.7 1.9-1.7.7 0 1.2.6 1.5 1.7.5-1.1 1.2-1.7 2-1.7.5 0 .8.2 1 .5.3.4.4 1 .4 2v6.1h-1.3v-6.1l-.1-1c0-.2-.2-.3-.4-.2-.5 0-1 .6-1.6 1.9v5.4h-1.3v-5.8l-.1-1.2c0-.2-.2-.3-.4-.3-.3 0-.5.2-.8.5l-.8 1.4v5.4zm-5.2-8.6a4 4 0 0 0-3 1.2c-.7.9-1 2-1 3.3 0 1.4.4 2.4 1.1 3.2.8.7 2 1.1 3.4 1.1.9 0 1.9-.2 3-.5v-1.2c-1 .4-2 .6-2.8.6-2 0-3-1-3-3H41v-.4c0-1.5-.3-2.6-.8-3.3-.6-.7-1.5-1-2.6-1zm-.2 1.1c1.3 0 2 .8 2 2.3v.2h-4.1c0-.8.3-1.4.6-1.8a2 2 0 0 1 1.5-.7zM139 184v-11.4h4.3c.9 0 1.6.1 2.1.4.5.2 1 .5 1.2 1 .3.5.5 1 .5 1.5s-.1 1-.4 1.4c-.3.5-.7.8-1.2 1a4 4 0 0 1 1.6 1.1c.3.5.5 1 .5 1.7l-.3 1.5a2 2 0 0 1-.8 1l-1.3.7-1.8.1zm1.5-6.6h2.5c.7 0 1.1 0 1.4-.2.4 0 .7-.2 1-.5l.2-1c0-.4-.1-.7-.3-1-.1-.3-.4-.5-.8-.6a5 5 0 0 0-1.7-.2h-2.3zm0 5.3h2.9l1-.1.9-.3.6-.6.2-1c0-.5-.1-.8-.3-1.1-.3-.3-.6-.6-1-.7l-1.6-.2h-2.7z"/>
</svg>
