<svg xmlns="http://www.w3.org/2000/svg" width="200" height="200">
 <defs>
  <marker id="a" orient="auto" overflow="visible">
   <path d="m2.3 0-3.5 2v-4z"/>
  </marker>
 </defs>
 <g fill-opacity=".2">
  <circle cx="59" cy="26" r="16"/>
  <circle cx="145" cy="26" r="16"/>
  <circle cx="59" cy="178" r="16"/>
  <circle cx="145" cy="178" r="16"/>
  <path d="M22 86h160v32H22z"/>
 </g>
 <g stroke-width="2">
  <g fill="#d5e8d4" stroke="#82b366">
   <circle cx="57" cy="24" r="15"/>
   <circle cx="57" cy="176" r="15"/>
  </g>
  <g fill="#f8cecc" stroke="#b85450">
   <circle cx="143" cy="24" r="15"/>
   <circle cx="143" cy="176" r="15"/>
  </g>
  <g stroke="#000" stroke-dasharray="8, 4" marker-end="url(#a)">
   <path d="M57 42v112"/>
   <path d="M143 42v112"/>
  </g>
  <path fill="#fff" stroke="#444" d="M21 85h158v30H21z"/>
  <path fill="#ffffe0" fill-opacity=".9" stroke="olive" stroke-dasharray="2, 4" stroke-linecap="round" d="M36.5 123h41v19h-41z"/>
 </g>
 <path d="M64.3 136v-8.2h1v5.3l2.4-2.7h1.1l-2.2 2.5 2.8 3.1H68l-2.7-3v3zm-6.6-.2v-1q1.2.6 2.1.6.6 0 1-.3.4-.2.4-.6 0-.5-1-.8l-1-.4q-1.3-.4-1.3-1.5 0-.7.6-1.2.5-.4 1.6-.4.8 0 1.9.3v.8q-1-.3-1.9-.3-.6 0-.9.2-.3.2-.3.5 0 .5.7.7l1.3.5q.7.2 1 .6.4.3.4.9 0 .8-.7 1.3-.7.4-1.8.4-1 0-2-.3zm-3-.5q-1 .8-1.9.8-.7 0-1.2-.4-.6-.5-.6-1.2 0-.8.8-1.4t2-.5h.7v-.5q0-.6-.2-.9t-1-.2q-.8 0-1.8.5v-.9q1.1-.4 2-.4 1.2 0 1.6.4.5.5.5 1.5v3.1q.2.2.5.2h.3v.5l-.7.2q-.7 0-1-.8zm-.2-.6v-1.5h-.3q-2 0-2 1.2 0 .4.2.6t.7.3q.7 0 1.4-.7zm-4.9 1.3-1.4.1q-1.3 0-1.8-.4-.4-.5-.4-1.7v-2.8h-1.4v-.7H46v-1.3h1v1.3h2.5v.7H47v3.6l.3.3q.4.3 1 .3.7 0 1.3-.2zm85.4-30v-1.4q1.8.8 3 .8 1 0 1.6-.4.7-.4.7-1 0-.7-1.5-1.2l-1.7-.5q-1.9-.6-1.9-2.2 0-1.2.9-1.8.9-.6 2.5-.6 1.2 0 2.7.3v1.3q-1.5-.5-2.8-.5-.8 0-1.3.3t-.5.9q0 .6 1.1 1l2 .7q1 .3 1.5.9.5.5.5 1.3 0 1.2-1 2-1 .6-2.7.6-1.4 0-3.1-.5zm-9.6 0v-1.4q1.7.8 3 .8 1 0 1.6-.4.6-.4.6-1 0-.7-1.4-1.2l-1.7-.5q-2-.6-2-2.2 0-1.2 1-1.8.8-.6 2.4-.6 1.2 0 2.8.3v1.3q-1.5-.5-2.8-.5-.8 0-1.3.3t-.5.9q0 .6 1.1 1l2 .7q1 .3 1.5.9.4.5.4 1.3 0 1.2-1 2-1 .6-2.6.6-1.5 0-3.1-.5zm-2.6 0q-1.6.5-2.9.5-2.2 0-3.4-1-1.1-1.2-1.1-3.3 0-2 1-3.3 1.2-1.2 3-1.2 1.7 0 2.5 1 .9 1.1.9 3.3v.5H117q.2 2.9 3.1 2.9 1.3 0 2.7-.6zm-5.7-4.7h4v-.2q0-2.3-1.9-2.3-.9 0-1.5.7-.5.7-.6 1.8zm-3.9 4.8q-1.3.4-2.7.4-2.2 0-3.4-1.1-1.2-1.2-1.2-3.3 0-2 1.2-3.3 1.2-1.1 3.3-1.1 1.3 0 2.7.4v1.3q-1.5-.6-2.6-.6-1.4 0-2.2 1-.8.8-.8 2.3 0 1.5.9 2.4.8.9 2.3.9 1.1 0 2.5-.5zm-9.6 0q-1.4.4-2.7.4-2.3 0-3.5-1.1-1.2-1.2-1.2-3.3 0-2 1.2-3.3 1.2-1.1 3.3-1.1 1.4 0 2.7.4v1.3q-1.5-.6-2.5-.6-1.4 0-2.2 1-.8.8-.8 2.3 0 1.5.8 2.4.9.9 2.4.9 1 0 2.5-.5zm-10-8.2v8.4h-1.5v-1.5q-1.1 1.7-3 1.7-2.4 0-2.4-2.8v-5.8h1.6v5.3q0 1 .3 1.5.3.4 1 .4 1.2 0 2.5-1.7V98zm-10-1.3v1.3q-1.7-.6-3-.6-2 0-2 1.4 0 .5.3.9.4.3 1.5.7l1 .3.9.4q2.2.7 2.2 2.5 0 1.4-1.2 2.3-1 .8-3 .8-1.2 0-3.3-.5v-1.6q2 1 3.4 1 1.1 0 1.8-.5.7-.4.7-1.2 0-.6-.4-1-.4-.3-1.7-.7l-1-.4q-1.5-.6-2.1-1.2-.6-.6-.6-1.6 0-1.3.9-2 1-.8 2.6-.8 1.3 0 3 .5zm-14 9.8v-7.2h-2.4v-1.1h2.3v-1q0-1.7.9-2.5.8-.8 2.7-.8 1.2 0 2.3.4v1.2q-1-.4-2.2-.4-1.2 0-1.7.4-.4.5-.4 1.6v1h4v1.2h-4v7.2zm-8.7 0V99h-3.1v-1h4.6v8.4zM60.7 96v-2h1.9v2zm.1-67.6v1.4h-7.6q0-.6.2-1 .3-.8 1-1.5.6-.8 1.8-1.8 1.8-1.5 2.5-2.4.6-.9.6-1.7 0-.8-.6-1.4-.6-.6-1.5-.6-1 0-1.7.6-.6.6-.6 1.7l-1.4-.1q.1-1.7 1.1-2.5t2.6-.8q1.7 0 2.6.9t1 2.2q0 .7-.3 1.4t-1 1.4l-2 2q-1.4 1-1.7 1.4l-.6.8zm78.2 1.3V18.3h4.3q1.3 0 2.1.4.8.3 1.2 1 .5.7.5 1.5t-.4 1.4q-.4.7-1.2 1 1 .4 1.6 1.1.5.7.5 1.7 0 .8-.3 1.5t-.8 1-1.3.7l-1.8.1zm1.5-6.6h2.5q1 0 1.4-.2.6-.1 1-.5.2-.4.2-1t-.3-1q-.2-.5-.8-.6-.5-.2-1.7-.2h-2.3zm0 5.2h3.9l.9-.3q.4-.2.6-.6l.2-1q0-.7-.3-1.1-.4-.5-1-.7-.5-.2-1.6-.2h-2.7zM60.8 180v1.4h-7.6q0-.6.2-1 .3-.8 1-1.5.6-.8 1.8-1.8 1.8-1.5 2.5-2.4.6-.9.6-1.7 0-.8-.6-1.4-.6-.6-1.5-.6-1 0-1.7.6-.6.6-.6 1.7l-1.4-.1q.1-1.7 1.1-2.5t2.6-.8q1.7 0 2.6.9t1 2.2q0 .7-.3 1.4t-1 1.4l-2 2q-1.4 1-1.7 1.4l-.6.8zm78.2 2v-11.4h4.3q1.3 0 2.1.4.8.3 1.2 1 .5.7.5 1.5t-.4 1.4q-.4.7-1.2 1 1 .4 1.6 1.1.5.7.5 1.7 0 .8-.3 1.5t-.8 1-1.3.7l-1.8.1zm1.5-6.6h2.5q1 0 1.4-.2.6-.1 1-.5.2-.4.2-1t-.3-1q-.2-.5-.8-.6-.5-.2-1.7-.2h-2.3zm0 5.3h2.9l1-.1.9-.3q.4-.2.6-.6l.2-1q0-.7-.3-1.1-.4-.5-1-.7-.5-.2-1.6-.2h-2.7z"/>
</svg>
