<svg xmlns="http://www.w3.org/2000/svg" width="200" height="200">
 <defs>
  <marker id="a" orient="auto" overflow="visible">
   <path d="m2.3 0-3.5 2v-4z"/>
  </marker>
 </defs>
 <g fill-opacity=".2">
  <circle cx="59" cy="26" r="16"/>
  <circle cx="145" cy="26" r="16"/>
  <circle cx="59" cy="178" r="16"/>
  <circle cx="145" cy="178" r="16"/>
  <path d="M22 86h160v32H22z"/>
 </g>
 <g stroke-width="2">
  <g fill="#d5e8d4" stroke="#82b366">
   <circle cx="57" cy="24" r="15"/>
   <circle cx="57" cy="176" r="15"/>
  </g>
  <g fill="#f8cecc" stroke="#b85450">
   <circle cx="143" cy="24" r="15"/>
   <circle cx="143" cy="176" r="15"/>
  </g>
  <g stroke="#000" stroke-dasharray="8, 4" marker-end="url(#a)">
   <path d="M57 42v112"/>
   <path d="M143 42v112"/>
  </g>
  <path fill="#fff" stroke="#444" d="M21 85h158v30H21z"/>
 </g>
 <path d="M140 103v-1.4q1.8.8 3 .8 1 0 1.6-.4.7-.4.7-1 0-.7-1.5-1.2l-1.7-.5q-1.9-.6-1.9-2.2 0-1.2.9-1.8.9-.6 2.5-.6 1.2 0 2.7.3v1.3q-1.5-.5-2.8-.5-.8 0-1.3.3t-.5.9q0 .6 1.1 1l2 .7q1 .3 1.5.9.5.5.5 1.3 0 1.2-1 2-1 .6-2.7.6-1.4 0-3.1-.5zm-9.6 0v-1.4q1.8.8 3 .8 1 0 1.6-.4.6-.4.6-1 0-.7-1.4-1.2l-1.7-.5q-2-.6-2-2.2 0-1.2 1-1.8.8-.6 2.4-.6 1.2 0 2.8.3v1.3q-1.5-.5-2.8-.5-.8 0-1.3.3t-.5.9q0 .6 1.1 1l2 .7q1 .3 1.5.9.4.5.4 1.3 0 1.2-1 2-1 .6-2.6.6-1.5 0-3.1-.5zm-2.6 0q-1.6.5-2.9.5-2.2 0-3.4-1-1.1-1.2-1.1-3.3 0-2 1-3.3 1.2-1.2 3-1.2 1.7 0 2.6 1 .8 1.1.8 3.3v.5H122q.2 2.9 3.1 2.9 1.3 0 2.7-.6zm-5.7-4.7h4v-.2q0-2.3-1.9-2.3-.9 0-1.5.7-.5.7-.6 1.8zm-3.9 4.8q-1.3.4-2.7.4-2.2 0-3.4-1.1-1.2-1.2-1.2-3.3 0-2 1.2-3.3 1.2-1.1 3.3-1.1 1.3 0 2.7.4v1.3q-1.5-.6-2.6-.6-1.4 0-2.2 1-.8.8-.8 2.3 0 1.5.9 2.4.8.9 2.3.9 1.1 0 2.5-.5zm-9.6 0q-1.4.4-2.7.4-2.3 0-3.5-1.1-1.2-1.2-1.2-3.3 0-2 1.2-3.3 1.2-1.1 3.3-1.1 1.4 0 2.7.4v1.3q-1.5-.6-2.5-.6-1.4 0-2.2 1-.8.8-.8 2.3 0 1.5.8 2.4.9.9 2.4.9 1.1 0 2.5-.5zm-10-8.2v8.4h-1.5v-1.5q-1.1 1.7-3 1.7-2.3 0-2.3-2.8v-5.8h1.5v5.3q0 1 .3 1.5.3.4 1 .4 1.2 0 2.5-1.7V95zm-10-1.3v1.3q-1.7-.6-3-.6-2 0-2 1.4 0 .5.3.9.4.3 1.5.7l1 .3.9.4q2.2.7 2.2 2.5 0 1.4-1.2 2.3-1 .8-3 .8-1.2 0-3.3-.5v-1.6q2 1 3.4 1 1.1 0 1.8-.5.7-.4.7-1.2 0-.6-.4-1-.4-.3-1.7-.7l-1-.4q-1.5-.6-2.1-1.2Q82 97 82 96q0-1.3.9-2 1-.8 2.6-.8 1.3 0 3 .5zm-16 12.9V94.9H74v1.6q1-1.8 2.7-1.8 1.5 0 2.3 1.1.8 1.1.8 3 0 2.1-1 3.4t-2.5 1.3q-1.4 0-2.3-1.1v4zm1.5-5.2q1 1.1 2 1.1 1.1 0 1.7-.9.5-.9.5-2.5 0-3-1.8-3-1.3 0-2.4 1.6zm-6 1q-1.5 1.2-2.9 1.2-1.1 0-1.9-.6-.7-.7-.7-1.7 0-1.3 1.1-2.1 1.2-.8 3.1-.8h1v-.8q0-.9-.4-1.2-.4-.4-1.3-.4-1.4 0-2.8.7v-1.3q1.6-.6 3-.6 1.7 0 2.3.7.7.6.7 2.2v3.5q0 .8.2 1 .1.3.6.3h.5l.1.9-1.1.2q-1.2 0-1.6-1.1zm-.3-1v-2h-.5q-3.1 0-3.1 1.6 0 .6.4 1t1 .4q1 0 2.2-1zm-15.2 2V95h1.3v1.6q1-1.8 2-1.8t1.4 1.8q.9-1.8 2-1.8.8 0 1.1.6.4.6.4 1.9v6.2h-1.4v-7.2q0-.2-.5-.2-.7 0-1.5 2v5.4H56v-5.9l-.1-1.1q-.1-.3-.4-.3-.3 0-.8.5l-.8 1.3v5.5zm8.2-74.9v1.4h-7.6q0-.6.2-1 .3-.8 1-1.5.6-.8 1.8-1.8 1.8-1.5 2.5-2.4.6-.9.6-1.7 0-.8-.6-1.4-.6-.6-1.5-.6-1 0-1.7.6-.6.6-.6 1.7l-1.4-.1q.1-1.7 1.1-2.5t2.6-.8q1.7 0 2.6.9t1 2.2q0 .7-.3 1.4t-1 1.4l-2 2q-1.4 1-1.7 1.4l-.6.8zm78.2 1.3V18.3h4.3q1.3 0 2.1.4.8.3 1.2 1 .5.7.5 1.5t-.4 1.4q-.4.7-1.2 1 1 .4 1.6 1.1.5.7.5 1.7 0 .8-.3 1.5t-.8 1-1.3.7l-1.8.1zm1.5-6.6h2.5q1 0 1.4-.2.6-.1 1-.5.2-.4.2-1t-.3-1q-.2-.5-.8-.6-.5-.2-1.7-.2h-2.3zm0 5.2h3.9l.9-.3q.4-.2.6-.6l.2-1q0-.7-.3-1.1-.4-.5-1-.7-.5-.2-1.6-.2h-2.7zM139 182v-11.4h4.3q1.3 0 2.1.4.8.3 1.2 1 .5.7.5 1.5t-.4 1.4q-.4.7-1.2 1 1 .4 1.6 1.1.5.7.5 1.7 0 .8-.3 1.5t-.8 1-1.3.7l-1.8.1zm1.5-6.6h2.5q1 0 1.4-.2.6-.1 1-.5.2-.4.2-1t-.3-1q-.2-.5-.8-.6-.5-.2-1.7-.2h-2.3zm0 5.3h2.9l1-.1.9-.3q.4-.2.6-.6l.2-1q0-.7-.3-1.1-.4-.5-1-.7-.5-.2-1.6-.2h-2.7z"/>
 <path fill="red" d="M60 176c2-.8 4.3.5 4.8 2.6.4 1.5-.4 3.2-1.7 4a3.7 3.7 0 0 1-5.5-2.8c-.2-1.6.8-3.3 2.4-3.8zm-7.7 0c2.2-.4 4.5 1.7 4.2 4a3.8 3.8 0 0 1-4 3.3c-2-.2-3.8-2.3-3.3-4.3a3.7 3.7 0 0 1 3.1-3z"/>
 <path fill="#82b366" d="m52.3 176 .1-1.3a8 8 0 0 1 7.4-6.5c.7 0 1.3.2 1.8.5s1 .7 1.3 1.3l1.8 3v.3a4 4 0 0 1-2.4.3c-.6-.2-1.1-.4-1.6-.8-1-.9-1.6-2.3-2.2-3.2h-.1c-.7 0-1.3.4-1.8.8-.2.1-.1.3 0 .4 1 1.8 2.2 3.6 3.4 5.4.1.3-.7.7-1 .5l-3.4-5.3h-.3a7 7 0 0 0-2 4.6c0 .3-1 .3-1 0z"/>
</svg>
