<svg xmlns="http://www.w3.org/2000/svg" width="200" height="200">
 <defs>
  <marker id="a" orient="auto" overflow="visible">
   <path d="m2.3 0-3.5 2v-4z"/>
  </marker>
 </defs>
 <g fill-opacity=".2">
  <circle cx="59" cy="26" r="16"/>
  <circle cx="145" cy="26" r="16"/>
  <path d="M22 86h160v32H22z"/>
 </g>
 <g stroke-width="2">
  <circle cx="57" cy="24" r="15" fill="#d5e8d4" stroke="#82b366"/>
  <circle cx="143" cy="24" r="15" fill="#f8cecc" stroke="#b85450"/>
  <g stroke="#000" stroke-dasharray="8, 4" marker-end="url(#a)">
   <path d="M57 42v112"/>
   <path d="M143 42v112"/>
  </g>
  <g stroke="#444">
   <path fill="#fff" d="M21 85h158v30H21z"/>
   <path fill="none" stroke-dasharray="2, 4" stroke-dashoffset="2" d="M25 162h64v32H25zm86 0h64v32h-64z"/>
  </g>
 </g>
 <path d="M86.1 104.9v-8.5h1.4V98c.7-1.2 1.3-1.8 1.8-1.8.8 0 1.3.6 1.5 1.8.6-1.2 1.3-1.8 2-1.8.5 0 .9.2 1.1.6.3.4.4 1 .4 1.9v6.2H93v-6l-.1-1c0-.2-.2-.3-.4-.2-.5 0-1 .6-1.6 1.8v5.5h-1.4v-7c-.1-.2-.3-.3-.5-.3s-.5.2-.8.5l-.7 1.4v5.4zm-3.8-1c-1 .8-1.9 1.2-2.8 1.2a3 3 0 0 1-2-.7c-.5-.5-.7-1-.7-1.7 0-.9.4-1.6 1.2-2.1a5 5 0 0 1 3-.8h1v-.7c0-.7-.1-1.1-.4-1.3-.3-.3-.7-.4-1.3-.4a6 6 0 0 0-2.8.7v-1.2c1.1-.4 2.2-.6 3.1-.6 1 0 1.8.2 2.3.7.5.4.7 1.1.7 2.2v3.5l.1 1.1c.1.2.3.3.6.3l.5-.1.2 1-1.2.2c-.7 0-1.2-.4-1.5-1.2zm-.3-1v-2.2h-.4c-2.1 0-3.2.6-3.2 1.8 0 .4.1.7.4 1 .3.3.6.4 1 .3.7 0 1.4-.3 2.2-1zm-7.3 1.7c-1 .3-2 .5-3 .5-1.5 0-2.6-.4-3.3-1.1-.8-.7-1.2-1.8-1.2-3.2a5 5 0 0 1 1.1-3.3c.7-.9 1.7-1.3 2.9-1.3s2 .4 2.6 1.1c.5.7.8 1.8.8 3.3v.5h-5.8c.1 2 1.2 2.9 3.2 2.9.8 0 1.7-.2 2.7-.6zm-5.8-4.7h4v-.2c0-1.5-.6-2.3-1.8-2.3-.7 0-1.2.2-1.5.7-.4.4-.6 1-.7 1.8zm-10 5v-8.5h1.5V98a3.7 3.7 0 0 1 3.2-1.8l1.6.2v2.5H64v-1.1l-.6-.1c-.7 0-1.2.1-1.6.4-.5.3-1 .7-1.4 1.4v5.5zm-3.5 0-2.2.2c-1.3 0-2.1-.2-2.5-.7-.5-.4-.7-1.2-.7-2.5v-4.1h-2.1v-1.2h2v-1.7h1.6v1.8h3.8v1.2h-3.8v4.3l.1 1c0 .2.2.4.4.5.3.3.9.4 1.6.4a6 6 0 0 0 1.9-.3zm-16.8-.3v-1.4a8 8 0 0 0 3.1.7c.7 0 1.2-.1 1.6-.3.4-.3.6-.6.6-1 0-.5-.5-.9-1.5-1.2l-1.6-.5c-1.3-.5-2-1.2-2-2.2a2 2 0 0 1 1-1.8c.5-.5 1.3-.7 2.4-.7.8 0 1.7.1 2.8.4v1.3c-1-.3-2-.5-2.8-.5-.6 0-1 .1-1.4.3-.3.2-.5.5-.5.8 0 .5.4.8 1.2 1l2 .7c.7.3 1.2.6 1.5 1 .3.3.4.7.4 1.3 0 .8-.3 1.4-1 1.9s-1.5.7-2.6.7c-1 0-2-.2-3.2-.5zm116 0v-1.4c1.2.5 2.2.8 3 .8.7 0 1.2-.1 1.6-.4.5-.3.7-.6.7-1 0-.5-.5-.9-1.5-1.2l-1.7-.5c-1.3-.4-1.9-1.1-1.9-2.2 0-.8.3-1.4.9-1.8.6-.4 1.4-.6 2.5-.6l2.7.3v1.3c-1-.3-2-.5-2.8-.5-.5 0-1 .1-1.3.3a1 1 0 0 0-.5.9c0 .4.4.7 1.1 1l2 .7a3 3 0 0 1 1.5.9c.3.3.5.8.5 1.3 0 .8-.3 1.5-1 2-.7.4-1.6.6-2.7.6-1 0-2-.2-3.1-.5zm-9.6 0v-1.4c1.2.5 2.2.8 3 .8.7 0 1.2-.1 1.6-.4.4-.3.6-.6.6-1 0-.5-.5-.9-1.4-1.2l-1.7-.5c-1.3-.4-2-1.1-2-2.2a2 2 0 0 1 1-1.8c.5-.4 1.3-.6 2.4-.6l2.8.3v1.3c-1-.3-2-.5-2.8-.5-.5 0-1 .1-1.3.3a1 1 0 0 0-.5.9c0 .4.4.7 1.1 1l2 .7a3 3 0 0 1 1.5.9c.3.3.4.8.4 1.3 0 .8-.3 1.5-1 2a5 5 0 0 1-2.6.6c-1 0-2-.2-3.1-.5zm-2.6 0c-1 .3-2 .5-2.9.5-1.5 0-2.6-.3-3.4-1a4.7 4.7 0 0 1-1.1-3.3c0-1.3.3-2.4 1-3.3a4 4 0 0 1 3-1.2c1.1 0 2 .3 2.6 1 .5.7.8 1.8.8 3.3v.5h-5.8c.1 2 1.2 2.9 3.1 2.9.9 0 1.8-.2 2.7-.6zm-5.7-4.7h4v-.2c0-1.5-.6-2.3-1.9-2.3-.6 0-1.1.2-1.5.7-.3.5-.5 1-.6 1.8zm-3.9 4.8c-.9.3-1.8.4-2.7.4a5 5 0 0 1-3.4-1.1 4.5 4.5 0 0 1-1.2-3.3c0-1.3.4-2.4 1.2-3.3.8-.7 1.9-1.1 3.3-1.1.9 0 1.8.1 2.7.4V98c-1-.4-1.9-.6-2.6-.6-1 0-1.7.3-2.2 1-.5.5-.8 1.3-.8 2.3 0 1 .3 1.8.9 2.4.5.6 1.3.9 2.3.9.7 0 1.6-.2 2.5-.5zm-9.6 0c-1 .3-1.8.4-2.7.4-1.5 0-2.7-.4-3.5-1.1a4.5 4.5 0 0 1-1.2-3.3c0-1.3.4-2.4 1.2-3.3.8-.7 1.9-1.1 3.3-1.1 1 0 1.8.1 2.7.4V98a7 7 0 0 0-2.5-.6c-1 0-1.7.3-2.2 1-.5.5-.8 1.3-.8 2.3 0 1 .3 1.8.8 2.4.6.6 1.4.9 2.4.9.7 0 1.6-.2 2.5-.5zm-10-8.2v8.4h-1.5v-1.5a3.4 3.4 0 0 1-3 1.7c-1.5 0-2.3-1-2.3-2.8v-5.8h1.5v5.3c0 .7.1 1.2.3 1.5.2.3.5.4 1 .4.8 0 1.6-.6 2.5-1.7v-5.4zm-10-1.3v1.3a9.2 9.2 0 0 0-3-.6c-1.3 0-2 .5-2 1.4l.3.9 1.5.7 1 .3.9.4c1.5.5 2.2 1.3 2.2 2.5 0 1-.4 1.7-1.2 2.3-.7.5-1.7.8-3 .8-.8 0-1.9-.2-3.3-.5v-1.6a8 8 0 0 0 3.4 1 3 3 0 0 0 1.8-.5c.5-.3.7-.7.7-1.2 0-.4-.1-.7-.4-1l-1.7-.7-1-.4c-1-.4-1.7-.8-2.1-1.2-.5-.3-.7-.8-.7-1.5 0-.9.3-1.5.9-2a4 4 0 0 1 2.6-.8c.9 0 1.9.2 3 .5zM60.8 28.4v1.4h-7.6c0-.4 0-.7.2-1a11.3 11.3 0 0 1 2.8-3.3c1.2-1 2-1.8 2.5-2.4.4-.6.6-1.2.6-1.7s-.2-1-.6-1.4a2 2 0 0 0-1.5-.6c-.7 0-1.2.2-1.7.6-.4.4-.6 1-.6 1.7l-1.4-.1c0-1.1.4-2 1.1-2.5a4 4 0 0 1 2.6-.8c1.1 0 2 .3 2.6.9a3 3 0 0 1 1 2.2c0 .5-.1 1-.3 1.4-.2.5-.5 1-1 1.4l-2 2c-1 .7-1.5 1.1-1.7 1.4l-.6.8zm78.2 1.3V18.3h4.3c.9 0 1.6.1 2.1.4.5.2 1 .5 1.2 1 .3.5.5 1 .5 1.5s-.1 1-.4 1.4c-.3.5-.7.8-1.2 1a4 4 0 0 1 1.6 1.1c.3.5.5 1 .5 1.7l-.3 1.5a2 2 0 0 1-.8 1l-1.3.7-1.8.1zm1.5-6.6h2.5c.7 0 1.1 0 1.4-.2.4 0 .7-.2 1-.5l.2-1c0-.4-.1-.7-.3-1-.1-.3-.4-.5-.8-.6a5 5 0 0 0-1.7-.2h-2.3zm0 5.2h3.9l.9-.3c.3-.1.5-.3.6-.6l.2-1c0-.5-.1-.8-.3-1.1-.3-.3-.6-.6-1-.7l-1.6-.2h-2.7zM158 185v-1.2h.6c.6 0 1 0 1.3-.2.3-.2.5-.6.8-1.3l.4-.8-3.5-8h1.5l2.8 6.3 2.8-6.4h1.4l-4.3 9.6c-.3.7-.7 1.3-1.2 1.6a4 4 0 0 1-2 .4zm-2.1-3-2.3.1c-1.2 0-2-.2-2.5-.7-.5-.4-.7-1.2-.7-2.5v-4.1h-2.1v-1.2h2v-1.8h1.6v1.8h3.8v1.2h-3.8v4.3l.1 1c0 .2.2.4.4.5.3.3.9.4 1.6.4a6 6 0 0 0 1.9-.3zm-12.5-8.8c-1.1 0-2 .6-2.8 1.8v-1.6H139V185h1.5v-4a3 3 0 0 0 2.3 1.1c1 0 2-.4 2.6-1.3.6-.8 1-2 1-3.4a5 5 0 0 0-.9-3 2.7 2.7 0 0 0-2.2-1.1zm-.4 1.4c1.2 0 1.8 1 1.8 3 0 1-.2 1.9-.5 2.5a2 2 0 0 1-1.6.9c-.7 0-1.4-.4-2.1-1.2v-3.6c.8-1.1 1.6-1.6 2.4-1.6zm-14.3 7.3v-8.5h1.4v1.6c.7-1.1 1.3-1.7 1.9-1.7.7 0 1.2.6 1.5 1.7.5-1.1 1.2-1.7 2-1.7.5 0 .8.2 1 .5.3.4.4 1 .4 2v6.1h-1.3v-6.1l-.1-1c0-.2-.2-.3-.4-.2-.5 0-1 .6-1.6 1.9v5.4h-1.3v-5.8l-.1-1.2c0-.2-.2-.3-.4-.3-.3 0-.5.2-.8.5l-.8 1.4v5.4zm-5.2-8.6c-1.2 0-2.1.4-3 1.2-.7.9-1 2-1 3.3 0 1.4.4 2.4 1.1 3.2.8.7 2 1.1 3.4 1.1.9 0 1.9-.2 3-.5v-1.2c-1 .4-2 .6-2.8.6-2 0-3-1-3-3h5.7v-.4c0-1.5-.3-2.6-.8-3.3-.6-.7-1.5-1-2.6-1zm-.2 1.1c1.3 0 2 .8 2 2.3v.2h-4.1c0-.8.3-1.4.6-1.8a2 2 0 0 1 1.5-.7zM60.8 182v1.4h-7.6c0-.4 0-.7.2-1a11.4 11.4 0 0 1 2.8-3.3c1.2-1 2-1.8 2.5-2.4.4-.6.6-1.2.6-1.7s-.2-1-.6-1.4a2 2 0 0 0-1.5-.6c-.7 0-1.2.2-1.7.6-.4.4-.6 1-.6 1.7l-1.4-.1c0-1.1.4-2 1.1-2.5a4 4 0 0 1 2.6-.8c1.1 0 2 .3 2.6.9a3 3 0 0 1 1 2.2c0 .5-.1 1-.3 1.4-.2.5-.5 1-1 1.4l-2 2c-1 .7-1.5 1.1-1.7 1.4l-.6.8z"/>
</svg>
