<?xml version="1.0" encoding="UTF-8" standalone="no"?>
<svg xmlns="http://www.w3.org/2000/svg" height="36" width="36" viewBox="0 0 36 36">
  <path fill="#fff" d="M 24.757031,5.0378906 C 33.971484,29.390625 8.4058594,17.542969 8.4058594,17.542969 c 0,0 -9.8121094,-22.2011721 16.3511716,-12.5050784 z"/>
  <path fill="#000" d="M 15.532031,5.3226563 C 13.767188,6.6796875 12.012891,8.0648438 10.230469,9.3867188 8.26875,10.652344 8.6941406,12.329297 10.715625,12.825 c 0.713672,0.140625 1.335938,-0.390234 1.9125,-0.878906 0.379688,-0.28125 1.033594,-0.0035 1.100391,0.376172 0.235546,1.40625 -0.326954,3.048046 0.53789,4.317187 0.949219,0.84375 1.894922,0.914063 2.752735,-0.221484 0.379687,-0.970313 0.119531,-2.084766 0.08437,-3.11836 1.764843,0.861329 5.71289,1.191797 5.189062,-2.995312 C 21.554297,8.3320313 20.056641,7.25625 18.727734,6.1417969 17.644922,5.3683594 16.660547,4.4753906 15.532031,5.3191406 Z m 1.698047,2.8722656 c 0.973828,0.8121094 2.654297,1.771875 1.715625,2.7562501 -0.794531,0.573047 -2.221875,-0.738281 -3.15,-1.5433595 z M 18,0 a 18,18 0 1 0 0,36 18,18 0 0 0 0,-36 z m 5.315625,6.1207031 c 2.19375,2.1585938 3.902344,7.3019529 0.277734,10.6523439 -4.359375,4.028906 -10.926562,2.446875 -13.7144527,0 C 7.4707031,14.663672 5.625,9.4394531 9.3023438,5.8886719 13.33125,2.4152344 19.430859,2.4257813 23.315625,6.1171875 Z"/>
</svg>