<svg xmlns="http://www.w3.org/2000/svg" width="200" height="200">
 <defs>
  <marker id="a" orient="auto" overflow="visible">
   <path d="m2.3 0-3.5 2v-4z"/>
  </marker>
 </defs>
 <g fill-opacity=".2">
  <circle cx="59" cy="26" r="16"/>
  <circle cx="145" cy="26" r="16"/>
  <circle cx="102" cy="26" r="16"/>
  <circle cx="59" cy="178" r="16"/>
  <circle cx="145" cy="178" r="16"/>
  <circle cx="102" cy="178" r="16"/>
  <path d="M22 86h160v32H22z"/>
 </g>
 <g stroke-width="2">
  <g fill="#d5e8d4" stroke="#82b366">
   <circle cx="57" cy="24" r="15"/>
   <circle cx="100" cy="24" r="15"/>
   <circle cx="57" cy="176" r="15"/>
  </g>
  <g fill="#f8cecc" stroke="#b85450">
   <circle cx="143" cy="24" r="15"/>
   <circle cx="143" cy="176" r="15"/>
   <circle cx="100" cy="176" r="15"/>
  </g>
  <g stroke="#000" stroke-dasharray="8, 4" marker-end="url(#a)">
   <path d="M57 42v112"/>
   <path d="M100 42v112"/>
   <path d="M143 42v112"/>
  </g>
  <path fill="#fff" stroke="#444" d="M21 85h158v30H21z"/>
 </g>
 <path d="M122 106v-8.5h1.5v1.6q1.2-1.8 3.2-1.8l1.6.2v2.4H127v-1.1l-.6-.1q-.9 0-1.6.4-.6.4-1.4 1.4v5.5zm-3.5-.3q-1.6.5-3 .5-2.1 0-3.3-1.1-1.2-1.1-1.2-3.2 0-2 1.2-3.3 1.1-1.3 2.8-1.3 1.8 0 2.6 1.1.9 1 .9 3.3v.5h-5.8q.2 2.8 3.1 2.8 1.2 0 2.7-.5zm-5.8-4.7h4.1v-.2q0-2.3-1.9-2.3-.9 0-1.5.6-.6.7-.7 1.9zm-3.8 5-2.2.2q-1.9 0-2.6-.7-.6-.7-.6-2.5v-4.1h-2.2v-1.2h2.1V96h1.6v1.8h3.8V99H105v5.3l.5.5q.5.3 1.5.3l2-.2zm-13.6 0V94.8h-3.2v-1.2h4.8V106zm-9.8 0v-7.3h-3.1v-1.2H87v8.5zm-.2-10.4v-2h2v2zM74.9 106v-7.1h-2.3v-1.2h2.3v-.9q0-1.8.8-2.5.9-.8 2.7-.8 1.3 0 2.4.3V95q-1.1-.4-2.2-.4-1.2 0-1.7.5-.5.4-.5 1.6v1h4V99h-4v7.1zM60.8 28.4v1.4h-7.6q0-.6.2-1 .3-.8 1-1.5.6-.8 1.8-1.8 1.8-1.5 2.5-2.4.6-.9.6-1.7 0-.8-.6-1.4-.6-.6-1.5-.6-1 0-1.7.6-.6.6-.6 1.7l-1.4-.1q.1-1.7 1.1-2.5t2.6-.8q1.7 0 2.6.9t1 2.2q0 .7-.3 1.4t-1 1.4l-2 2q-1.4 1-1.7 1.4l-.6.8zm78.2 1.3V18.3h4.3q1.3 0 2.1.4.8.3 1.2 1 .5.7.5 1.5t-.4 1.4q-.4.7-1.2 1 1 .4 1.6 1.1.5.7.5 1.7 0 .8-.3 1.5t-.8 1-1.3.7l-1.8.1zm1.5-6.6h2.5q1 0 1.4-.2.6-.1 1-.5.2-.4.2-1t-.3-1q-.2-.5-.8-.6-.5-.2-1.7-.2h-2.3zm0 5.2h3.9l.9-.3q.4-.2.6-.6l.2-1q0-.7-.3-1.1-.4-.5-1-.7-.5-.2-1.6-.2h-2.7zM101 29.7V27h-5v-1.3l5.3-7.4h1.1v7.4h1.6V27h-1.6v2.7zm0-4v-5.2l-3.6 5.2zM95.7 182v-11.4h8.3v1.4h-6.8v3.5h6.4v1.3h-6.4v3.9h7v1.4zm-34.9-2v1.4h-7.6q0-.6.2-1 .3-.8 1-1.5.6-.8 1.8-1.8 1.8-1.5 2.5-2.4.6-.9.6-1.7 0-.8-.6-1.4-.6-.6-1.5-.6-1 0-1.7.6-.6.6-.6 1.7l-1.4-.1q.1-1.7 1.1-2.5t2.6-.8q1.7 0 2.6.9t1 2.2q0 .7-.3 1.4t-1 1.4l-2 2q-1.4 1-1.7 1.4l-.6.8zm78.2 2v-11.4h4.3q1.3 0 2.1.4.8.3 1.2 1 .5.7.5 1.5t-.4 1.4q-.4.7-1.2 1 1 .4 1.6 1.1.5.7.5 1.7 0 .8-.3 1.5t-.8 1-1.3.7l-1.8.1zm1.5-6.6h2.5q1 0 1.4-.2.6-.1 1-.5.2-.4.2-1t-.3-1q-.2-.5-.8-.6-.5-.2-1.7-.2h-2.3zm0 5.3h2.9l1-.1.9-.3q.4-.2.6-.6l.2-1q0-.7-.3-1.1-.4-.5-1-.7-.5-.2-1.6-.2h-2.7z"/>
</svg>
