<svg xmlns="http://www.w3.org/2000/svg" width="200" height="200">
 <defs>
  <marker id="a" orient="auto" overflow="visible">
   <path d="m2.3 0-3.5 2v-4z"/>
  </marker>
 </defs>
 <g fill-opacity=".2">
  <circle cx="59" cy="26" r="16"/>
  <circle cx="145" cy="26" r="16"/>
  <circle cx="59" cy="178" r="16"/>
  <circle cx="145" cy="178" r="16"/>
  <path d="M22 86h160v32H22z"/>
 </g>
 <g stroke-width="2">
  <g fill="#d5e8d4" stroke="#82b366">
   <circle cx="57" cy="24" r="15"/>
   <circle cx="57" cy="176" r="15"/>
  </g>
  <g fill="#f8cecc" stroke="#b85450">
   <circle cx="143" cy="24" r="15"/>
   <circle cx="143" cy="176" r="15"/>
  </g>
  <g stroke="#000" stroke-dasharray="8, 4" marker-end="url(#a)">
   <path d="M57 42v112"/>
   <path d="M143 42v112"/>
  </g>
  <path fill="#fff" stroke="#444" d="M21 85h158v30H21z"/>
 </g>
 <path d="M106 106V94.4h1.5V96q1.2-1.8 2.8-1.8 1.5 0 2.3 1.1.8 1.1.8 3 0 2.2-1 3.5T110 103q-1.4 0-2.4-1.2v4zm1.5-5.2q1.1 1.2 2.2 1.2 1 0 1.5-1 .6-.8.6-2.4 0-3-1.8-3-1.3 0-2.5 1.6zm-6 1q-1.4 1.3-2.8 1.3-1.2 0-2-.7-.7-.7-.7-1.7 0-1.3 1.2-2.1t3-.8h1V97q0-1-.4-1.3-.4-.4-1.3-.4-1.3 0-2.7.8v-1.4q1.6-.6 3-.6 1.7 0 2.3.7.7.6.7 2.2v3.6q0 .7.2 1 .1.3.6.3l.5-.1v1l-1 .2q-1.2 0-1.6-1.2zm-.3-1v-2h-.4q-3.2 0-3.2 1.7 0 .6.4 1t1.1.3q1 0 2.2-1zM86 103v-8.5h1.4V96q1-1.8 1.9-1.8 1.1 0 1.5 1.8.8-1.8 2-1.8.7 0 1 .6.5.6.5 2v6.1h-1.4v-6.1l-.1-1q-.1-.3-.4-.2-.7 0-1.6 1.8v5.5h-1.3v-5.8l-.1-1.2q-.1-.3-.4-.3-.4 0-.8.5-.5.6-.8 1.4v5.4zM60.8 28.4v1.4h-7.6q0-.6.2-1 .3-.8 1-1.5.6-.8 1.8-1.8 1.8-1.5 2.5-2.4.6-.9.6-1.7 0-.8-.6-1.4-.6-.6-1.5-.6-1 0-1.7.6-.6.6-.6 1.7l-1.4-.1q.1-1.7 1.1-2.5t2.6-.8q1.7 0 2.6.9t1 2.2q0 .7-.3 1.4t-1 1.4l-2 2q-1.4 1-1.7 1.4l-.6.8zm78.2 1.3V18.3h4.3q1.3 0 2.1.4.8.3 1.2 1 .5.7.5 1.5t-.4 1.4q-.4.7-1.2 1 1 .4 1.6 1.1.5.7.5 1.7 0 .8-.3 1.5t-.8 1-1.3.7l-1.8.1zm1.5-6.6h2.5q1 0 1.4-.2.6-.1 1-.5.2-.4.2-1t-.3-1q-.2-.5-.8-.6-.5-.2-1.7-.2h-2.3zm0 5.2h3.9l.9-.3q.4-.2.6-.6l.2-1q0-.7-.3-1.1-.4-.5-1-.7-.5-.2-1.6-.2h-2.7z"/>
 <path fill="red" d="M61.1 176c-.4 0-.8 0-1.1.2a3.6 3.6 0 0 0-2.4 3.8 3.7 3.7 0 0 0 5.5 2.8 3.8 3.8 0 0 0 1.7-4c-.4-1.7-2-2.8-3.7-2.8zm-8.2.2a3 3 0 0 0-.6 0 3.7 3.7 0 0 0-3.1 3c-.5 2 1.3 4.1 3.3 4.3a3.8 3.8 0 0 0 4-3.3c.2-2-1.6-4-3.6-4z"/>
 <path fill="#82b366" d="m52.3 176 .1-1.3a8 8 0 0 1 7.4-6.5c.7 0 1.3.2 1.8.5s1 .7 1.3 1.3l1.8 3v.3a4 4 0 0 1-2.4.3c-.6-.2-1.1-.4-1.6-.8-1-.9-1.6-2.3-2.2-3.2h-.1c-.7 0-1.3.4-1.8.8-.2.1-.1.3 0 .4 1 1.8 2.2 3.6 3.4 5.4.1.3-.7.7-1 .5l-3.4-5.3h-.3a7 7 0 0 0-2 4.6c0 .3-1 .3-1 0z"/>
 <path d="M143 168c-2.5.1-4 1.8-3.8 4.6-2 0-3.7.8-4 3.7 0 3 3.6 5.2 6.6 2.5.3 2.2-.5 2.8-2.1 3.1-.6.1-.9.2-1 .9.1.7.3.8 1 1h6.7c.6-.2.8-.3.9-1-.1-.7-.3-.8-1-.9-1.6-.3-2.4-.9-2.1-3 3 2.6 6.6.5 6.7-2.6-.4-3-2-3.7-4.1-3.7.2-2.8-1.3-4.5-3.8-4.6z"/>
</svg>
