<svg xmlns="http://www.w3.org/2000/svg" xmlns:xlink="http://www.w3.org/1999/xlink" width="182" height="222">
 <defs>
  <linearGradient id="b">
   <stop offset="0" stop-color="#ee0"/>
   <stop offset="1" stop-color="#eb0"/>
  </linearGradient>
  <linearGradient xlink:href="#a" id="c" x1=".3" x2="181.7" y1="111.1" y2="111.1" gradientUnits="userSpaceOnUse"/>
  <linearGradient xlink:href="#b" id="g" x1="143.5" x2="164.7" y1="154.2" y2="189.1" gradientUnits="userSpaceOnUse"/>
  <linearGradient xlink:href="#b" id="l" x1="144.4" x2="144.4" y1="55" y2="66.7" gradientUnits="userSpaceOnUse"/>
  <linearGradient xlink:href="#b" id="m" x1="70.3" x2="73.8" y1="36.6" y2="51.2" gradientUnits="userSpaceOnUse"/>
  <linearGradient xlink:href="#b" id="h" x1="9.2" x2="10.9" y1="55.5" y2="65.4" gradientUnits="userSpaceOnUse"/>
  <linearGradient xlink:href="#b" id="k" x1="47.7" x2="48.1" y1="10.2" y2="14.3" gradientUnits="userSpaceOnUse"/>
  <linearGradient xlink:href="#b" id="j" x1="120.9" x2="130.9" y1="9.5" y2="11.8" gradientUnits="userSpaceOnUse"/>
  <linearGradient xlink:href="#b" id="i" x1="6.3" x2="7.7" y1="28.8" y2="40.6" gradientUnits="userSpaceOnUse"/>
  <radialGradient id="a" cx="94.2" cy="121.7" r="74" gradientUnits="userSpaceOnUse">
   <stop offset="0" stop-color="#555"/>
   <stop offset="1"/>
  </radialGradient>
  <radialGradient id="d" cx="412.4" cy="644.1" r="35.7" fr="0" fy="644.2" gradientTransform="matrix(2.2 -.06 .05 1.9 -823 -1100)" gradientUnits="userSpaceOnUse">
   <stop offset="0" stop-color="#fff"/>
   <stop offset="1" stop-color="#555"/>
  </radialGradient>
  <radialGradient id="e" cx="-52.3" cy="400.3" r="90.7" gradientTransform="matrix(1.7 -.014 .011 1.32 165.8 -405.4)" gradientUnits="userSpaceOnUse">
   <stop offset="0" stop-color="#f0d"/>
   <stop offset="1" stop-color="#52b"/>
  </radialGradient>
  <filter id="f">
   <feGaussianBlur stdDeviation=".2"/>
  </filter>
 </defs>
 <path fill="#444" style="fill:url(#c)" d="M137 .6.3 5.5v181l26.5 34.9 154.9-7.5-44.5-18.8-.2-174.7 44.7-1z"/>
 <path fill-opacity=".2" d="m181.3 213.7-44-18.6-.3-174.7 44.3-1z"/>
 <path style="fill:url(#a)" d="M28.8 85.2c26.5-52.6 98.4-61.5 132.1-3 21 36.4-4.4 100.5-61 109C51.5 198.6-.5 143 28.8 85.3z"/>
 <path fill="#eee" style="fill:url(#d)" d="M80.1 105c12.9-25.4 47.5-29.7 63.8-1.4 10 17.5-2.1 48.5-29.5 52.5a35 35 0 0 1-34.3-51z"/>
 <path fill="#333" d="m120.3 103.2-19.4 1.4 3 35.8 5-.5-1.2-15 12.2-1.1 2.6 2.4.8 11.8 5-.4-1-13.8-3-2.8 2.6-3.1-.8-10zm-1.6 5 2.6 2.1.5 5.8-2.3 2.6-12.3 1.2-.9-10.8z"/>
 <path fill="#fff" fill-opacity=".1" d="M26.8 221.3.3 186.4V5.5L29.9 23z"/>
 <path fill="#71c" style="fill:url(#e)" d="M26.8 221.3.3 186.4V5.5L137 .5l44.7 18.8v47c-10.8 15-40.4 21.7-56.2 7-7.8 3.4-20 10.5-34.5-7.7-13.9-6.4-29.8-1.7-34.9 4A328.9 328.9 0 0 0 28.8 103c0 5.8-10.8 19.5-15.1-20.2-4 .3-5.8-1.2-7.5-8-3 15.8-2.4 50-2.4 50s10.5 53 23.7 68.6c53.6 0 80-10.2 114.2-29.9 0-4 .5-12 .5-12l11.7 6.6a64 64 0 0 1 27.8-5v60.7z"/>
 <path fill-opacity=".1" d="M29.9 22.9.3 5.6 137 .6l44.7 18.8z"/>
 <path fill-opacity=".2" d="M26.8 221.3.3 186.4V5.5L29.9 23l-1 80.2c0 5.8-11 19.5-15.2-20.2-4 .3-5.8-1.2-7.5-8-3 15.8-2.4 50-2.4 50s10.5 53 23.7 68.6z"/>
 <path fill="#fff" fill-opacity=".8" d="M3.3 9.7c0 3 0 3.4 1.3 4.3-1.2-.2-1.3 1-1.4 4.4C3.1 14.8 3 13.8 2 13c1 .2 1.2-.4 1.3-3.4zm17.4 9.7c0 3 .2 3.4 1.4 4.3-1.3 0-1.3 1-1.5 4.5 0-3.7 0-4.7-1.2-5.5 1.1.3 1.2-.3 1.3-3.3zm4.6 4.2c.1 3.7.3 4.2 2.6 5.5-2.3-.2-2.4 1.2-2.8 5.7 0-4.6-.2-6-2.2-7 2 .4 2.3-.3 2.5-4.2zm-7.6 18.8c0 1.9 0 2 1 2.7-1 0-1 .6-1.1 2.9 0-2.4-.1-3-1-3.6.9.2 1-.1 1-2zM2.8 75.8c0 2.4 0 2.7 1 3.4-1 0-1 .8-1.1 3.5 0-2.8-.1-3.7-1-4.3 1 .3 1-.2 1-2.6zm20.3 21c0 2.3.1 2.6 1.1 3.4-1 0-1 .7-1.1 3.5 0-3-.1-3.7-1-4.3.9.2 1-.3 1-2.6zm-.9-16c0 2.3.1 2.6 1.1 3.3-1 0-1 .8-1.2 3.5 0-2.8 0-3.7-1-4.3 1 .2 1-.2 1.1-2.6zm-5.4-4.3c0 3 .2 3.4 1.4 4.3-1.3 0-1.3 1-1.5 4.5 0-3.7 0-4.8-1.2-5.5 1.1.3 1.2-.3 1.3-3.3zm2.6 8.2c0 3.9.3 4.4 2.6 5.6-2.3-.2-2.4 1.2-2.8 5.7 0-4.7-.2-6-2.2-7 2 .4 2.3-.4 2.4-4.3zM3.3 140c0 2.5 0 3 1 3.6-1 0-1 1-1.1 4 0-3.3 0-4.2-.8-4.8.7.2.8-.3.9-2.8zm18.8 65.5c0 2 0 2.3.6 3-.6 0-.6.6-.7 3 0-2.5-.3-3.5-.8-4 .5.2.8 0 .9-2zm2.6-3.4c0 2.6.1 3 1 3.7-.9 0-1 .8-1 4 0-3.3-.1-4.2-.8-4.9.7.3.8-.2.8-2.8zm-5.8-18c0 3.3.1 3.7 1.5 4.8-1.4 0-1.5 1-1.7 5 0-4-.1-5.3-1.4-6.2 1.3.5 1.5-.2 1.6-3.6zm-13.7-2.6c0 2.5 0 3 .9 3.7-.9 0-.9.8-1 3.8 0-3 0-4-.8-4.7.7.3.8-.3.9-2.8zm-.6-32.4c0 3.8.3 4.3 2.6 5.5-2.4 0-2.5 1.2-2.8 5.7-.1-4.7-.2-6-2.2-7 2 .4 2.2-.4 2.4-4.2zM3 174.3c0 3.4.1 4 1.6 5-1.5-.2-1.5 1-1.8 5 0-4.2 0-5.4-1.3-6.2 1.2.3 1.4-.4 1.5-3.8zM39 23.6c-.2 2-.4 2.1-2.4 2.4 2 .3 2.1 1 2.3 3.3.2-2.3.3-3 2.2-3.2-1.9 0-2-.5-2.2-2.5zm54.3.1c-.1 1.2-.2 1.3-1.5 1.5 1.3.1 1.3.6 1.5 2 0-1.5.1-1.9 1.2-2-1 0-1.2-.3-1.2-1.5zm-8.8.1c-.1 1.2-.2 1.3-1.5 1.5 1.3.1 1.3.5 1.5 2 0-1.5.1-1.9 1.2-2-1 0-1.2-.3-1.2-1.5zm33.4 1.6c-.1 1.8-.3 2-2.2 2.3 2 .2 2 .8 2.2 3 .2-2.2.3-2.8 2-3-1.8 0-2-.5-2-2.3zm35.7 2.5c-.2 3.2-.5 3.6-4 4.2 3.5.4 3.7 1.6 4 5.6.3-4 .5-5.3 3.7-5.6-3.2-.2-3.5-.9-3.7-4.2zm-52.8-.7c-.2 3.3-.5 3.6-4.1 4.2 3.5.4 3.7 1.6 4 5.6.4-4 .5-5.3 3.7-5.6-3.2-.2-3.5-.9-3.6-4.2zm-66.5.3c-.1 1.2-.2 1.3-1.5 1.5 1.3.2 1.3.6 1.5 2 0-1.4.1-1.8 1.2-2-1 0-1.2-.3-1.2-1.5zm107.7 1c-.1 1.3-.2 1.5-1.6 1.7 1.4.1 1.4.6 1.6 2.1 0-1.5.1-2 1.4-2-1.3 0-1.4-.5-1.4-1.8zm31.7 2.7c-.3 4.5-.7 5-5.6 5.7 4.9.6 5 2.3 5.6 7.8.4-5.6.6-7.2 5-7.8-4.4 0-4.8-1-5-5.7zm-78.3 1c-.1 1.7-.3 2-2.2 2.2 1.9.2 2 1 2.2 3 .1-2.2.2-2.8 1.9-3-1.7 0-1.9-.4-2-2.2zm39.9.5c-.2 3.3-.5 3.7-4.1 4.2 3.6.4 3.7 1.6 4 5.6.4-4 .6-5.2 3.7-5.6-3.2 0-3.5-.9-3.6-4.2zm10.2 1.4c-.1 2.2-.3 2.4-2.7 2.7 2.3.3 2.4 1.1 2.7 3.7.2-2.6.3-3.4 2.4-3.7-2.1 0-2.3-.5-2.4-2.7zm34.6 6.1c-.1 1.3-.2 1.5-1.6 1.6 1.4.2 1.4.7 1.6 2.2 0-1.5.2-2 1.4-2-1.2-.2-1.4-.5-1.4-1.8zm-3 11.8c-.1 2.1-.3 2.4-2.7 2.7 2.4.3 2.4 1 2.7 3.7.2-2.7.3-3.4 2.4-3.7-2.1 0-2.3-.5-2.4-2.7zM31.4 59.5c-.1 2-.3 2.1-2.4 2.4 2.1.3 2.2 1 2.4 3.3.2-2.4.3-3 2.1-3.3-1.8 0-2-.5-2.1-2.4zm4.5 11.8c-.1 1.3-.2 1.5-1.6 1.7 1.4.1 1.4.6 1.6 2.1 0-1.5.1-2 1.3-2-1.2-.2-1.3-.5-1.3-1.8zm-2 5.2c-.3 3.3-.6 3.7-4.2 4.2 3.6.5 3.7 1.7 4.1 5.7.3-4 .5-5.3 3.6-5.7-3.1 0-3.4-.8-3.6-4.2zM178.3 157c-.2 2.6-.4 3-3.3 3.4 2.9.3 3 1.3 3.3 4.5.2-3.3.4-4.2 2.9-4.5-2.5 0-2.8-.7-2.9-3.4zm-6.6 7c0 1.2-.1 1.3-1.5 1.5 1.3.2 1.4.6 1.5 2.2.2-1.6.2-2 1.4-2.2-1.2 0-1.3-.3-1.4-1.6zm7 1.5c-.1 2.6-.3 3-3.2 3.4 2.9.3 3 1.3 3.3 4.5.2-3.3.4-4.2 2.9-4.5-2.6 0-2.8-.7-3-3.4zm-45.2 7.8c0 2-.3 2.2-2.4 2.5 2.1.2 2.2 1 2.4 3.2.2-2.3.3-3 2.1-3.2-1.8 0-2-.5-2-2.5zm8 4.8c0 1.4-.2 1.5-1.5 1.7 1.3.1 1.4.6 1.5 2.1.1-1.6.2-2 1.4-2.2-1.2 0-1.3-.2-1.4-1.5zm-19.4.4c-.3 5-.8 5.6-6.2 6.3 5.4.7 5.6 2.5 6.2 8.5.4-6.1.7-8 5.4-8.4-4.8-.2-5.2-1.3-5.4-6.4zm-12 5.3c0 1.3-.1 1.5-1.5 1.7 1.4 0 1.4.6 1.6 2 .1-1.4.2-2 1.4-2-1.2 0-1.3-.4-1.4-1.7zm22.7 1.2c-.2 3.6-.5 4-4.5 4.6 4 .5 4 1.8 4.5 6.2.3-4.6.5-5.9 4-6.3-3.5 0-3.8-1-4-4.5zm-13 8.7c-.2 2-.4 2.4-2.7 2.7 2.3.2 2.4 1 2.6 3.5.2-2.6.3-3.4 2.4-3.6-2.1 0-2.3-.6-2.4-2.7zm40.6 4.3c-.1 2-.3 2.2-2.4 2.5 2 .2 2.2 1 2.4 3.3.2-2.4.3-3.1 2-3.3-1.8-.1-2-.5-2-2.5zm-124.3 1.7c-.1 2.2-.3 2.4-2.6 2.8 2.3.2 2.4 1 2.6 3.6.2-2.6.3-3.4 2.4-3.6-2-.1-2.3-.6-2.4-2.8zm-5 7.8c0 1.2-.2 1.4-1.6 1.6 1.4 0 1.4.6 1.6 2 .1-1.4.2-2 1.4-2-1.2 0-1.3-.4-1.4-1.6zm114.7.6c0 1.2-.2 1.4-1.5 1.6 1.3 0 1.4.6 1.5 2 .1-1.4.2-2 1.4-2-1.2 0-1.3-.3-1.4-1.6zm-15 1.7c-.1 2-.3 2-2.4 2.3 2.1.4 2.2 1 2.4 3.4.2-2.3.3-3 2.1-3.2-1.8-.1-2-.5-2-2.5zm21.3.8c0 1.3-.2 1.5-1.6 1.7 1.4.1 1.5.5 1.6 2.1.1-1.6.2-2 1.4-2.2-1.2 0-1.3-.2-1.4-1.5zm-117.6 3.8c-.1 1.2-.2 1.3-1.6 1.5 1.4.2 1.4.6 1.6 2.2 0-1.6.2-2 1.4-2.2-1.3 0-1.4-.3-1.4-1.6zm142.6-10.9c.6-.2 1.3.4 1.2 1 0 .6-.7 1-1.2 1a1 1 0 0 1 0-2zm-7.4-5.4c1-.3 2-.2 3 0h2.8l-.1 1.8h-1.1a2.6 2.6 0 0 1 .3 1.6c0 1-.5 2-1.4 2.3a5 5 0 0 1-2.7.3c-.5 0-.6 1-.1 1.2l1.8.1c1 0 2 0 2.8.8.5.7.5 1.7.4 2.5-.1 1-1 1.8-2 2-1.2.5-2.6.4-3.9.3-.8-.3-1.8-.7-2.1-1.6-.3-.8-.2-1.8.5-2.4.2-.3.8-.5.3-.8-.3-.5-.5-1-.2-1.7.2-.4.8-.9.1-1.2-.8-.8-.9-2-.6-3.2.2-1 1.2-1.7 2.2-2zm1 1.7c-.7 0-1.1.8-1 1.4a1 1 0 0 0 1.1 1.1c.6 0 1.2 0 1.4-.7.2-.6.1-1.5-.6-1.8a2.4 2.4 0 0 0-1 0zm-.7 7.5c-.4.3-.7 1.2-.1 1.5.7.3 1.5.3 2.2.2.6 0 1.2-.4 1-1-.1-.8-1.1-.5-1.7-.6H170z" style="filter:url(#f)"/>
 <path fill="#52b" style="filter:url(#f)" d="m143.3 153.8-.9 50 39.3-26.4z"/>
 <path fill="#ec0" style="fill:url(#g)" d="m143.5 154.2 37.7 23.3-38.5 25.8z"/>
 <path fill="#fff" style="filter:url(#f)" d="M178.3 23.4V23h-.9l.2 3.5h.8v-1.3c0 .2.2.4.6.4.5 0 .7-.6.7-1.3 0-1.3-.9-1.8-1.4-1zm.3.3c.2 0 .3.4.3.7 0 .2 0 .6-.3.6s-.3-.4-.3-.6c0-.2 0-.6.3-.7zm-3.8-.4h.8c0 1.5 0 1.8.3 1.8s.2-.3.1-2h.8l.1 1.5c0 .8-.4 1.2-1 1.2-.8 0-1-.5-1-1zm-2-1.3h-.8v1.6l-.6-.3c-.5 0-.8.5-.7 1.4 0 .5.2 1.3.8 1.3.3 0 .5-.3.6-.5v.4h.8zm-1 2c.2 0 .3.4.3.6 0 .2 0 .6-.3.7-.2 0-.3-.4-.3-.6 0-.3 0-.7.3-.7zm-2.9-.5v.3c.5-.8 1.3-.5 1.3.2v2h-.7v-1.6c0-.2-.2-.3-.3-.3-.1 0-.3 0-.3.3V26h-.7l-.1-2.6zm-2.8 0c-.6 0-.8.7-.8 1.3 0 .8.3 1.4.9 1.4.3 0 .4-.2.6-.5v.4h.8l-.1-2.7h-.8v.5c0-.3-.3-.5-.6-.5zm.3.7c.3 0 .3.3.3.6 0 .2 0 .6-.2.7-.3 0-.4-.5-.4-.7 0-.2 0-.6.3-.6zm-4-1.8a1 1 0 0 0-1 1c0 .3.1.7.5.8-.5.2-.6.7-.6 1 0 .8.6 1 1.2 1 .7 0 1-.4 1-1a1 1 0 0 0-.7-1c.4-.2.6-.4.6-.8 0-.5-.4-1-1-1zm0 .7.2.3c0 .2 0 .5-.2.5s-.3-.4-.3-.5c0-.1 0-.3.2-.3zm.3 2c0 .1 0 .4-.3.5-.3 0-.3-.3-.3-.5s0-.6.3-.6.3.4.3.6zm-5.7-2.5h.9v1.8l.8-1.7h.8l-.8 1.8 1 1.8h-1l-.8-1.5v1.6h-.8zm-3 .2.2 3.7c1.8 0 2.3-.5 2.3-2 0-1.4-.8-2-2.5-1.7zm.9.8c.7 0 .7.5.7 1 0 .7-.1 1-.6 1zm-2.5-.7h.9v2.6c0 1-.7 1.4-1.4 1v-.8l.3.2c.5 0 .3-.4.2-3zm-127 50.7-.2.3c.6-.3 1 .4.9 1l-.6 2-.7-.6c.5-1.5.7-1.7.5-2-.3-.2-.3 0-1 1.5l-.6-.8 1.2-2Zm-.6-2.6c.2 0 .3.3.3.5s-.1.4-.3.4c-.2 0-.3-.3-.3-.5s.1-.4.3-.4zm-.6.6.4.8-1.3 1.8-.5-1.1zm-1.6-3.2c-1 .3-1 2-.3 2.4h-.2l.3 1.4 1.6-1.3-.3-1h-.2c.3-1 0-1.9-1-1.6zm.7 1.5-.4.5s-.4.3-.5-.2c0-.2 0-.5.4-.7.1 0 .4-.1.5.4zm-1.6-5c-.2.3-.2.6-.2 1 0 .3.1.6.3.8-.3 0-.5.2-.6-.5l.1-.5v-1c-.6.2-.6 1.8-.3 2.6.4 1 .8.6 2.3.2v-1h-.2c.3-.7.1-1.4-.1-1.8-.3-.3-1-.4-1.3.2zm1.1 1.2c0 .2 0 .4-.4.5-.2 0-.4 0-.4-.4s.2-.5.4-.6c.3 0 .4.3.4.5zm-1.7-6 .1 1.3h.5v1.4l-.3.3v1.2l2.4-1.7V61Zm1 1.6 1.1.2c-.2 0-.7.4-1 .6zm-1-7.7.5 1-.5 1.4 1-.3.3 1.2c-.9 0-1.7 0-2.5.6l-.3-.6.7-.5c.3-1 .6-1.8.7-2.8Zm-1-1v.4c.3-.2.6 0 .7.2l-.3.7c-.3-.5-.6-.6-.8-.1l-.4 1.2-.5-.5.7-2.5.7.5zm-2.7-3c.7.2 1.4.5 2 1l-.1.8-.6-.3-.6 3-.6-.3.4-3-.6-.2zm8.7-3.2.6.3v1.8l.7-1.6h.7c-.4 1.6-1 3-1.8 4.3-.3 0-.7-.2-1-.4l.7-1v-3.4zm-1.6-1.3c.4.5.9.9 1.4 1.2l-1.6 1.5.7.6-.2.7c-.8-.4-1.5-1-2-1.7l1.8-1-.5-.6zm-1.7-2c-.6-.1-1.5.5-1.7 1.2-.3.8.2 1.5.8 1.4l-.2.3c0 .2.4.7.6 1l1.8-2.3-.5-.7-.2.2v-1l-.6-.2zm.2 1c.1.3-.1.7-.3.9-.2 0-.5.5-.7.2-.2-.3 0-.7.3-1 .1 0 .5-.3.7 0zm-.4-5.4.3 1-1.2.6.3.9 1.2-.8.4.9-3.2 2.3-.5-1.1 1.4-1-.3-.8-1.4.8-.4-1.1zm-2.5-4.8.2 1c-.3.4-.7.8-1.1 1h1.4l.3 1h-3.8l-.2-1h1zm.8-2.1.3 1-3.7 1.7-.3-1zm-2.5-3-3.1 2.2.4.9 1.2-.8c-.6 1.2.4 1.9 1.4 1.3 1.3-.5 1.3-2 .3-2.2l.3-.2-.5-1.2zm0 1.8c0 .3-.2.6-.5.7-.4.3-.6.2-.7 0-.1-.3.1-.5.5-.7.3-.2.5-.3.7 0zm-2.6-4c-1.3 1.5-.3 3 .8 2.7l-.4-.8c-.5.2-.5-.5 0-.8l.7 1.4c1.2-.7.9-2 .7-2.2-.6-1-1.3-.7-1.8-.2zm1.3.7c.1.2 0 .4-.2.7l-.4-.7c.2-.2.5-.3.6 0zm-2.4-5.5-1.6 4 .6.6 1-1.7-.6 2 .6.8.7-2c1.4.4 2.4-2-.7-3.7zm.7 1.5c.4.4.4.8.2 1-.1.2-.4.2-.7 0zm5.7 179.5c.3-.3-.5-.5-.6-1.1-.1-.6.1-1 .4-1.3.4-.6.9 0 1.2.3l-.3.8c-.2-.3-.3-.5-.5-.5-.1 0-.2.2-.1.3l.6.9c.2.6-.1 1.2-.3 1.4-.5.5-1.1 0-1.4-.5l.4-.7c.3.4.5.6.6.4zm-1.8-.6s-.2.3-.3.2c-.2 0-.2-.4 0-.9l1 .4c.2-1 .2-2.2-.6-2.4-1-.2-1.8 3.2-.5 3.6.4.1.8 0 1-.8l-.6-.2m.1-1.7c.3 0 .1.5.1.7l-.5-.2c.1-.3.2-.6.4-.5zm-2.1-3.6.6.5-.2 1.7.8-1.4.7.3-1.4 2.2-.6 2c-.3 0-.5-.2-.7-.4l.6-2c0-1 0-2 .2-3zm-3-.5c-.4 0-1.3 1-1.3 1.8 0 .4.1.8.4 1 .6.9 1.2.5 1.6-.4.4-.8.5-1.8 0-2.2-.1-.3-.4-.3-.6-.2zm.3 1c.2.2 0 .6-.2.8 0 .2-.3.7-.6.4-.2-.2 0-.6.2-1 .2-.1.4-.5.6-.3zm-.2-4 .8 1.4-.6.7-.3-.5-2 2.4a14 14 0 0 1-.6-1l2.3-2-.3-.5zm-1-2.2.1.8-.6.3v.3l-.5.3-.1-.4-1.7.9-.2-1 1.7-.7v-.4l.5-.2.1.3zm-1-2h-.3c.5.5.5 1 .4 1.3-.2.3-.4.2-2.3 1l-.1-1.2 1.4-.3c.4 0 .3-.7 0-.6l-1.5.4-.1-1 2.4-.4v.9zm.6-2.6c.2 0 .4.2.3.5 0 .2-.1.5-.4.5-.3 0-.4-.3-.4-.6s.3-.4.5-.4zm-.8 0v1l-2.4.3v-1zm-1.3-3.1c-1 0-1.3.8-1.3 1.4 0 .8.4 1.3 1.3 1.3 1 0 1.3-.6 1.3-1.4 0-1.1-.7-1.3-1.3-1.3zm.6 1.3c0 .4-.3.4-.6.4-.2 0-.6 0-.6-.3s.4-.4.6-.4c.2 0 .6 0 .6.3zm1.5-4.7-3.5.4.1 1h1.3c0 1 .5 1.6 1.2 1.6s1-.7 1-1.6v-1.4zm-.6 1.2c0 .5-.1.7-.4.7-.2 0-.4-.2-.4-.7zm-2.6-5c0 .4-.1.7 0 .8 0 .3.2.2.2 0 .1-1 .3-1.2.6-1.3h.7c.1.2.3.5.3.8v1.3l-.7-.3c.1-.3.2-.6.1-.7 0-.4-.2-.2-.3-.1 0 .3 0 .8-.2 1 0 .2-.2.3-.4.4-.2 0-.5 0-.6-.2a1 1 0 0 1-.4-.6l.1-1h.6zm.9-3h-.3c.7.3.8.9.6 1.4 0 .4-.5.5-2 1.3l-.3-.8 1.3-.8c.4-.3.1-.8-.2-.6l-1.3 1-.3-.7 2-1.8zm-2.4-3.7c-.3 0-.5.4-.7.8l-.5 1.2c0 .3 0 .6.2.8.1.2.4 0 .5 0-.3.4-.4.6-.6.6-.3 0-.2-.4-.2-.5 0-.2-.2-.3-.3-.5-.4.9-.2 1.4 0 1.6.3.2.7 0 .8 0 .3 0 .7-.5 2.3-2.2l-.5-1-.2.3-.1-1a.5.5 0 0 0-.7-.1zm.4 1c.2.5-.1.8-.2 1-.3.3-.5.5-.7.3 0-.2 0-.5.3-1 .4-.4.5-.2.6-.2zm-.8-3.6c.4 0 .5.3.5.5 0 .6-.1.6-.3.7-.3 0-.4-.2-.5-.5 0-.3.1-.7.3-.7zm-.6 1 .6.7-1.4 2.8-.5-.5zm-3 1.8.4-1c.4.6.6.7.8.3.2-.5-.7-1.6-.4-2.7.2-.4.3-.6.6-.8.6-.3 1 .2 1.4.7l-.3 1-.5-.6c0-.3-.4-.3-.4 0-.1.6.3 1 .4 1.9 0 .7-.3 1.5-.8 1.7-.4.3-.9 0-1.1-.5zm112.1 21c.3-.7.9-.7 1.3-.5.6.2.8 1 .6 1.4-.3.7-.8.7-1.3.5-.4-.2-.8-1-.6-1.4zm-3 1.2c.3-.7.9-.7 1.3-.5.5.2.8 1 .6 1.4-.3.6-.9.7-1.3.5-.6-.2-.8-1-.6-1.4zm-3 1c.3-.5.8-.5 1.3-.4.5.3.7 1 .5 1.5-.3.6-.9.7-1.3.5-.4-.2-.7-1-.5-1.5zm-5.6-2.4.3.8c.2-1.3 1-2 2-1.4.7.4.8 1 2.4 5.3l-1.6.6-1.3-3.5c-.3-1-1.3-.5-1 .4l1.4 3.5-1.6.6-2.2-5.7zm-4.8 1.6c-1.2.4-1.8 1.7-1.1 3.8.7 2 2 2.7 3.3 2.2 1.2-.4 2-1.5 1.2-3.7-.8-2.1-2.1-2.8-3.4-2.3zm1.7 2.8c.2.5.4 1.4 0 1.6-.6.2-1-.7-1.2-1.2-.2-.5-.4-1.5.1-1.6.5-.2 1 .6 1.1 1.2zm-7-3.6c.4-.5.8-.5 1.2-.3.5.2.7.9.5 1.3-.3.7-.8.6-1.2.4-.4-.2-.6-1-.4-1.4zm.6 2.5 1.6-.5 2 5.7-1.7.5zm-3.5-.6 1.6-.5.5 1.6.6-.2.4 1.5-.6.2 1.3 4.2-1.7.5-1.2-4.3-.6.2-.5-1.6.6-.1zm-3 6.7c1.6.6 2.2-.2 1.6-.6-2-.2-2.3-.8-2.5-1.6 0-.5-.1-1 .2-1.5.7-1.3 2-1 3.2-.7v1.7c-1.4-.5-2.2 0-1.5.6 1 .2 2.4.2 2.6 1.4 0 .7.1 1-.2 1.7-.6 1-2.2 1.2-3.4.7zm-4.2-3.5c-1.3.3-1.9 1.8-1.6 3.5a6 6 0 0 0 1 2.3c1.4 1.4 3.8.2 3.6-2l-1.5.4c0 1.3-1.3.8-1.4-.4l2.8-.6c-.3-2-1.4-3.4-3-3.2zm1.2 2.5-1.3.3c0-.6-.1-1.3.4-1.4.5 0 .7.6.9 1zm-8.4-1.2 1.7-.2c.4 3.7.3 4.6 1 4.5.6 0 .4-1-.1-4.6l1.6-.2.6 3.4c.7 3.8-4.3 4.3-4.5.8zm-4.1-2.7c-2 .2-2.7 1.9-2.5 5.3.1 2.6 2 5 4.4 3.4l.7.9 1-1-.9-1c.5-1 .6-1.7.5-3.2-.2-2.8-1.4-4.6-3.2-4.4zm.1 2c1.2 0 1.2 2.5 1.2 4l-.5-.7-1 1 .8.9c-1.2.3-1.2-1.7-1.3-2.6 0-1 0-2.6.8-2.6zM62 201.7c0 2.7 1.7 4.5 3 2.2l.1.8h1.7l-.1-6H65v.8c-1.4-2.2-3-.3-3 2.2zm2.4-1.5c.4 0 .6.5.6 1.5s-.1 1.6-.6 1.6c-.4 0-.7-.5-.7-1.6 0-1 .2-1.5.7-1.5zm-10.7-4.6h1.6v5.4l1.2-2.2h2l-1.6 2.7 1.8 3.3h-2l-1.3-3v3h-1.7zm-4.4 7.3c.7.5 1.5.8 1.7.4.4-.7-.9-.5-1.8-1.6-.5-.7-.4-2 .2-2.5 1.1-1.1 2.6-.4 3.4.2l-.7 1.3c-.8-.6-1.6-.7-1.6-.1-.1.6 2.1.5 2.1 2.4 0 1.8-1.8 2.9-3.9 1.3zm-5-6.8-2 8.8h1.8l.3-1.5h1.9l.3 1.5h1.8l-2-8.8zm1 2 .6 3.7h-1.2zm89.6-3 1.4-.4 2.3 5.8-1.4.6zm3.2 6c.4 0 1 .3 1.1.7.3.4.3 1.2-.2 1.4-.7.4-1.1-.2-1.3-.6a1 1 0 0 1 .4-1.3zm-4.6-2.5.4 1c0-1 .3-1.6 1-1.6l.6 1.8c-1.5.4-1.2.5.2 4.5l-1.4.5-2.1-5.6zm-4.1 1.4c-1 .3-1.4 1.3-.8 3.6 1 3.7 4.8 3 4-.2l-1.2.5c.2 1.3-1 .8-1.3-.3l2.4-1c-.6-2-1.8-3.1-3.1-2.6zm1.5 2.3-1.1.3c-.2-.6-.3-1.2.1-1.3.4-.2.7.4 1 1zm-9.8.7 1.5-.5 1.6 3-.6-3.3 1.2-.4 1.6 3-.5-3.4 1.4-.5.6 6.2-1.1.4-1.7-3 .4 3.4-1 .4zm-2.1 5 1.2.2c.4-.1.4-.6.1-.8-.8-.2-1.4-.2-1.8-.6-.6-.6-.9-1.5-.5-2.4.4-1 1.2-1.3 2.9-.8l-.2 1.5c-.5-.2-1-.3-1.2-.2-.6.3-.1.9.3.9 2 0 2.2 1.4 2.2 1.9.1 1.3-.9 2.6-3.1 1.8V208Zm-4.8-3 .2.9c.5-2 2-1.7 2.5-.2l1.3 4.5-1.5.5-1-3.6c-.1-.4-.4-.6-.6-.6-.3 0-.4.4-.3 1l1 3.4-1.4.4-1.7-5.8zm-4.5-1.4-1.7.4.2 9 1.7-.5-.1-1.5 1.6-.4.7 1.4 1.6-.5zm-.4 2 1.4 3.6-1 .3zm-7.5 2.3c-1.2.2-1.6 1.4-1.3 3.5.6 4 4.5 3.4 4 .5l-1.2.2v.5l-.4.3c-.4 0-.7-.4-.9-1.2l2.6-.6c-.3-1.7-1.3-3.4-2.8-3.2zm1.1 2.5-1 .2c-.2-.7-.2-1.2.3-1.3.4 0 .6.5.7 1zm-8-4.4 1.4-.2.6 4c.6-1.8 2.3-1.5 2.5.3l.8 4.5-1.6.2-.6-3.6c-.2-1.1-1-.8-.9.2l.6 3.5-1.6.2zm-1.1 1.7.1 1.6h.6l.2 1.5h-.4l.5 4.5h-1.6l-.4-4.4h-.6l-.1-1.5h.6l-.2-1.6zm-6.3 2v1c.2-.4.6-1.4 1.4-1.2v1.8c-1.7-.2-1.3 1.3-1.1 4.4l-1.6.2-.2-6zm-4.5 0c-1.3 0-2.1 1.6-2 3.5 0 2 .8 3 2.1 3s2.1-1 2-3.2c0-2.4-.8-3.2-2.1-3.2zm.7 3.3c0 .5 0 1.5-.6 1.6-.6 0-.6-1-.6-1.5 0-.6 0-1.6.5-1.6.6 0 .6 1 .7 1.5zm-5.6-2.8c-.2-2.6.4-3.3 2.2-3.3v2c-.9-.3-.7.4-.7 1.2h.8v1.6h-.8v4.5h-1.3v-4.4h-.5V210Zm-5 0v1c.4-.7.8-1.2 1.4-1v1.8c-1.8-.3-1.3 1.3-1.4 4.3h-1.6l.1-6h1.7zm-6.4 3c-.2 4 3.4 4.3 3.8 1.3h-1.2c-.3 1.2-1.3.5-1.1-.8h2.6c.1-1.7-.4-3.6-2-3.6-.3 0-1.8 0-2 3zm2-1.7c.5 0 .6.7.6 1.2h-1c0-.6.1-1.2.6-1.2zm-6.3-1.4h1.4l.5 3.3.8-3.2h1.5l-1.8 6h-1.2l-1.3-6zm-4.8 2.9c0 1.2.2 3.2 2 3.3 1.8 0 2.2-1.8 2.3-3.1 0-1.3-.2-3.3-2-3.4-1.8 0-2.2 1.9-2.3 3.2zm2.2-1.5c.5 0 .6 1 .5 1.5 0 .6-.1 1.6-.6 1.5-.6 0-.6-1-.6-1.5s.2-1.5.7-1.5zm-8-2v.9c1.2-1.7 2.5-1 2.4.7l-.3 4.6h-1.5l.2-3.8c0-1-.9-1-.9 0l-.2 3.6h-1.6l.5-6zm-3.7-.2v1c.4-.8.9-1.3 1.4-1l-.1 1.8c-1.6-.5-1.4 1-1.7 4.2l-1.5-.1.5-6zm-6.4-.6 1.5.2c-.4 3.8-.6 4.5 0 4.6.6 0 .5-.7.8-4.5h1.5l-.3 3.6c0 1.6-.8 2.6-2.2 2.5-1.5 0-1.8-1.4-1.7-2.7zm-4-2v-1.1l3.6.4-.2 2-1-.2-.7 6.7-1.7-.1.8-6.7-1-.1zm122.6-46.1-3.4 1.2.3 1.7-1.8-1-3 1.6h-1.1l-4 1.6-.2-.2-7.7 2.9 1 2.8 2.2-.8 3.1 6.6 4-1.6-3.2-6.5 1.5-.7 3.2 6.4 3.7-1.7-1.1-2 2.2 1.4 3.8-1.7-4.7-2.7c.2-.7.2-1.4 0-2l2.4 1 2.7 3.3 3-1.4-2.6-3.6zm-8.6 7-.4-.8c1-.1 1.1-.1.4.8zm14.4 1.8-3 1.5-5.5 2.6 8.4 11 5.2-3.7-.2-.4c.7.2 1.4 0 2-.4 1.7-1.5.4-4-1.8-3.7l.6-.5zm-1 4 3.8 4.6.7-.5c-.2.4-.3.8-.2 1.2l-.6-.8-2.3 1.3-.9-1.2 2-1.3-2.2-2.6-2 1-.5-.7zm-8.2.5-4.2 2 1.4 4.3-3-3.5-4.8 2.5 4.3 15.2 5.2-3.4-2.6-6.2 4 5 3.2-1.8-1.9-5.8 3.4 4.8 4-2.6zM1.3 27.2v32.4s.5.8.8-1c-.2 6.4.1 14 2.3 14.7 1.6.5 2.1-1.8 2.6-3 1.7 4.5 2.6 8.2 5.5 7.8 1.8-.3 3.5-4.2 4.2-6.8-1.1-29 .6-35.6-4.3-23.5.2-3.6.8-10.1.7-13.2-1.3-10.7-4.3-16.6-6-16.8-2.1-.2-3.4.9-5.8 9.4Zm62.1-1.6c-8.6.5-17.3 2.7-31 14.4L42 80.5a47.3 47.3 0 0 1 29.8-20.2c8.4-1 16.3 2 24 6a20 20 0 0 0 14.3 9c5.2.6 10.6-1.3 15-5.6a35 35 0 0 0 25.7 8.9 44 44 0 0 0 26-13c-3.9-12-7.9-24.5-11.8-35a34.9 34.9 0 0 1-38.2 13.7c-5.6-8.3-19-10.7-28.4-1.4a44.1 44.1 0 0 0-35-17.3Zm54.5-21.8c2.8 2.6-1 2.8-3.5 3.5-4 .8-10 1-17.2 1-5.6-.6-11.8-1-16.5-.7-2.6.2-7 0-7.6 2a290 290 0 0 0-40-1.8C29.4 8 16.3 8 15.9 13l40 7c-1.6-2-1-3 .2-3.6 5.9-2.8 22.8-2 33.2-1.7 7.2.9 14 1.2 18.7 1 2.7 0 7-.1 7.5-2 5.2.5 39.6 3.4 39.6-4z"/>
 <path fill="#52b" d="M170.6 177c.7-.5 2.4-.3 2.8 1 .2 1-1.2 2.5-2.4 2s-1.2-2.3-.4-3zm-4.5-7 5.1 5.8-2.1 1.4-5.1-6.1zm-10.6-7 2.5 1.5-.4-2.3 2.4-1 .2 4.3 2.4 3.1-2 1-2.6-3.2-4.8-2zm-7.8 3 3.8 8 2.8-1.3-1.8-3.2 3.7 2.3 2.7-1.3-4.3-2.3c.9-1.5.3-4.2-2.7-3.6zm5.1.6c.3.6-1.1 1.8-1.1 1.8l-1-2s1.8-.5 2.1.2zm-12.5 2 6.9-2.6.8 1.6-2 1 3.3 6.5-3 1.2-3.2-6.7-2.1.9zm30.5 12-4.4 3-7.8-10 4.8-2.2 1.3 1.5-2.3 1.2 1.2 1.6 2-1 1.5 1.7-2 1.3 1.6 2 2.2-1.2zm-19.7 13-4.1-14.1 4.1-2.2 4.4 5.2-2-6.4 3.5-1.6 8.2 9.8-3 2-5-7 2.8 8.5-2.5 1.3-5.9-7.1 3.7 8.8z"/>
 <path style="filter:url(#f)" d="M119.2 4.3c2.3 3-7.6 4.5-22 4.5C86.1 7.3 72.3 7.5 73.7 10c-33-3.4-56.1-2.4-57.2 2.5l38.4 6.8c-3.7-6 14.4-6 34.4-5.3 14.4 1.8 26.8 1.5 25.7-1 25.7 2.2 39.2.5 39.6-3zM99.4 9.4c5 .6 10 1.8 11.5 2.7 4 2.3-1.2 2.7-2.8 2.8-2.8.3-20 0-29.1-3.5-3.6-1.3.2-2.3 2.8-2.6a69 69 0 0 1 17.6.6Zm-17.6-.1c-1 .1-5.5.5-2.7 1.5 7.4 2.7 22.5 4 29 3.5 1.7-.3 5.6-.5 2.7-1.9a76.8 76.8 0 0 0-29-3.1Zm8.7.7c2 0 4.6 0 7.4.5 6 .7 10.7 2.6 5.3 3-4 .3-13-.5-17.5-2.1-2-.7.3-1.4 4.8-1.4zm1.7.3a14 14 0 0 0-4 .7c0 .7 0 .4 11.7 2.4.6-.8-.9-.6-4.8-1.3l1.2-.5c2.4 0 4.8.5 6.9.9V12a49 49 0 0 0-6.8-1c-1-.4-2.6-.7-4.2-.7zm-1 .7c2.5 0 6.6.3 2.7.8l-4.2-.6c.1-.1.7-.2 1.5-.2ZM6.6 18c-1.5-.1-3.3 2.3-5.1 9.3v32.3l.8-2.5C1.6 68.5 4 78.8 6.9 69.5c2.9 8.5 5.4 13 9.5 1.7l-1.2-28.8c-1.6 3.3-2.3 5.4-3.3 6.7.2-3.2 1-11 .8-14.4-.8-6.4-3.1-16.2-6-16.6zm57.7 8.8a46 46 0 0 0-30.4 13.4L42.6 77c20.9-24.8 38.2-20.4 53.9-12.2 6.8 10.4 19.9 12 28.3 2.6 16.1 14.5 35.7 11.2 50.1-2.5-4.9-15.8-7-22.3-10.5-31.5a36 36 0 0 1-38.6 12c-5-8.4-18.6-11-27.6-.8-9.5-12-21.5-18-34-17.9zm45.8 14.5a15 15 0 0 1 14.6 6.7c2.4 3.8 2.2 9.2 0 13.8-2.1 5-7 8.6-12.4 9-8.6.5-17.6-8.8-13.4-21.8 1.3-4.2 6-7.1 11.2-7.7zm0 .4c-4.6.4-9.4 3.4-10.8 7.4-4 12.7 4.8 21.6 13 21.1 5.3-.4 9.9-3.7 12-8.6 2.1-4.6 2.3-9.9 0-13.4-4.3-5.4-8.1-7-14.2-6.5zm2 4.6c3.3 0 6.4 1.7 8.2 4.5 3.1 4.8-.4 14.3-8.1 14.8-5.6.3-11.4-5.7-8.6-14.2a11 11 0 0 1 8.5-5.1zm0 3-5.8 1.8 3.5 11.5 1.9-.6-1.4-4.7 3.2-1 1.3 1.2 1 3.2 1.9-.7-1.3-3.7-1.5-1.3.8-1.8-.8-2.8zM7.4 54.9c.3 4.6 0 9.4-1.2 14-.6 2.6-2.2 3.8-3-2.4-.5-5-.1-11.7.7-14.8 1-4 3.2-1.2 3.5 3.2ZM4.2 52c-.8 2.7-1.2 11-.7 14.7.6 4.5 1.7 5 2.5 2 1-4.2 1.5-9.9 1.1-13.7-.5-4.3-2-6.3-2.9-3Zm107.9-.5 1.1.6.4 1-.6 1.4-3.2 1-1-3zM5.4 54c.4.1.8 1 1 3 .3 3-.3 9.2-1.4 9.4-.8.2-1.5-3.7-1-9.1.1-1.4.8-3.5 1.4-3.3Zm-.1 1.8c-3.5-37.2-1.8-18.6 0 0zm0 0c-.2 0-.4.6-.9 1.3l.2 7.6h.5l-.1-4c.5-1.4.5 2 .5 2.6h.6a17 17 0 0 0-.4-3.6c.2-1 .2-2 .1-3-.1-.3-.2-.8-.5-.9Zm-.1 1c.3 0 0 2.6-.3 3v-2.5c.1-.4.2-.5.3-.5Z"/>
 <path fill="#7c20b4" d="m14.2 46.6-.7 2.4v19.4l-.5.7V51.4c.1-.7 0-.7-.4 0l-.7 1.2v.8h-1.6l-.1 2.2-.1-2.3c-.2-1.5-.8-2.6-1.9-3.2l-.3 4.4.2.1-.7 14 .4 1.7c.5 1.2 1.1 2.8 1.5 1.3v1.7l1.1 1.7v.3l1.4.8v-.3l2.3-1.8 1.7-4.3v-5.8c0-.8-.3-.7-.5 0l-.4 1-.2-18.2c0-1-.2-1-.5 0zM9.8 63.8l-.2-1.7.3-1.2ZM5 20.5 4 22l-.5 10.6-.3-8.3L2 26.6 1.8 57l1-3.6V42.1l.2 3.7.7-1.4.1-3.4-.1 9 1-2.3v-.4l.9-1.3.3-8.1v-.3l-.1 8.2 1-1L7 21l-1.2.2L4.7 46Zm2.5 5c-.7 6-.8 12-.3 18 0 .8.2 1.3.5 1.3.4 0 .7-1 1-2.7l.2-2.4-.3 5.5 1 1 1-18.7-1-2.5c0 2.7-.4 9-.5 10.3l-1.2-1 .2-6.4.2.4-.2 4 1.1 1.2a67 67 0 0 0 0-8.2c-.2-3.1-1.1-4.9-1.7.2zm3.1 7c-.7 3.8-1 7.6-.8 11.5.2 3.8.8 6.8 1.4 4.1l.4-3.2-.7-2.7-.2 2.2-.2-.5.6-8v.5L11 40l.7 3c.1-3.2.3-6.5 0-9.7 0-.6-.5-3.8-1.1-.8zm-2.8 5.7H8V40l-.3.2zM121.3 5.5l-.1 1.2 22.2 4-1.6.3-21.3-3.8-2.2.8 2.6.6-3-.5-3.6.4V9l10.5 2.6a55 55 0 0 0-5.6-.9c0-.3-.5-.5-1.2-.8a50 50 0 0 0-16-1.2l-.1.5 3.7 1h.8l13.3 3c3.1.1 6.2.3 9.3.2.7 0 .6-.5.3-.8l3.5 1h4.8V13l2.2.5 4-.3V13l1 .1 5.5-1v-.2l1 .2 2-2-7.5-1.3-.3.8zm-82 2.8c-1 0-1.4 0-1.5.5 0 .2.4.6 1.3.8 1 .4 3 .8 4.9 1.3L32.1 8.8l-4.4.6v.4l17.2 4-21.4-4.2c-2.5.5-2.6.2-2.5 1l6.7 1.5-6.8-1-1.3 1.5L52 18.3l.2-1.3-6.9-1.3.5-.6 6.7 1.3c1.2-1 1.4-1 1-1.2l2.2-.7h.5l2.2-.4v-.5l-1.7-.3c2.5.3 4.1.5 6.2.4 1.5 0 2.2-.7 1.4-1l3 .7 4-.2.1-.4c3 .5 4.7.8 7.6.8 3.3 0 3.4-.6-.1-1.8-2.4-.2-2.4-.2-2.4-.6A59 59 0 0 0 60.3 9c-1 0-1 .8-.2 1L54 8.6h-5.7V9l2.6.6c-4.3-.8-8.6-1.3-11.8-1.3Zm15.5 2.2 1.6.3-4 .2-.1.2-1.7-.3h4.2zm16 1h1.9v.3zm89.5 27.8-4 3.7 5.6 21.9-4.5 1.5-4.5-20.8-4.4 2.3 4.8 26.6 10.2-2.9-1.5-6.8 1.9 7.2 8.6-6.4-1.8-7.6-4 3.4zm-32.3 8-.2 5.5h1.1l-.3 16c3.3 1.4 8.6 6 10.7 1.2.4-1 .5-2.3.4-3.6a9 9 0 0 0-2.6-6.3c.9-.6 2-1.5 2.1-3.1.7-4-1.6-7.8-7.2-9.3-1.3-.2-2.7-.4-4-.4zm18.6 1.8-6 .6-.7 23.5 5.8 1.1-.7-7.3h.5l1.3 8h5.7zm-13.7 4h.7l.1 4-.9-.4zm11.6 6.6.3 2.7h-.2zm-11.4 2 1 .4.2 3.7-1.1-.4zm-70.3-32L55.6 31l.8 30.1 5.4-2.5-.8-9.3h.3l1.6 9.3 4.9-1.7zm8.1.3c-1-.3-2 0-2.6.7-.7.8-1.2 1.8-1.6 3-.8 2.5-1 6-.8 9.3.2 3.5.8 7 2 9.5a8.8 8.8 0 0 0 2.1 3.1c.9.8 2 1.2 3 1 1.2 0 2-.3 2.8-.7.7-.5 1.3-1.2 1.6-2 .4-1 .6-2 .8-3.6v6l5.3.7v-5.6c.3 1.7.5 3.4 1 4.8a8 8 0 0 0 1.7 3 4 4 0 0 0 2.6 1c2 .2 3.3-.4 4.2-1.5a11 11 0 0 0 1.7-4.2v-.4l-5.4-3.5-.2 3.5-.6-.2.8-9.6.6.3-.3 4.2 5.1 3.6.1-.8a19 19 0 0 0-.7-8.5 8 8 0 0 0-4.9-4.9 3 3 0 0 0-2.6.3c-.7.5-1.3 1.3-1.7 2.2-.6 1.4-1 3.1-1.2 5l.1-10.5-5.5-2.4v11.7l-6.8-.3-.6-7 1.2.2.2 4.9 5.7.7v-.6c0-6.8-2.9-11.2-7-12.4Zm-19.2.2-5.8 2.5.3 12.7-3.7-9.1-6 4.5 7.1 31.9 4.5-4.2L45.7 57l1.7 4 2.7-2.2v-5l2 11.2 4.2-3.1zm9.2 14.6h-.7v-5.1zm12.4 4.4v1.6h-1.2l-.1-1.5Z"/>
 <path fill="#ec0" style="fill:url(#h)" d="m14.5 46.7-.7 2.3.1 25 1.6-4.3V64l-.8 2.5zm-6.1 4c-.2 3.3-.4 4 .1 3.9l-.8 14s.8 3 1.3 3.5c.7-.6 1-7.6.4-10 .7-.4 1.6-10-1-11.4zm4.4.8-.7 1.2-.2 22.7 1.8-1.4v-5.2l-.9 1zm-2.2 2.4-1 19.7.7 1.2.2-6.3h.3l-.1 7 .8.5V53.9Zm-1.7 1.4.3.2-.2 4.4-.3-.7Zm1.9 5.5.1.1v4.5h-.3Zm-2.3 1.8.4.7-.1 4.3-.5-1z"/>
 <path fill="#ec0" style="fill:url(#i)" d="m5 21.6-.9 1-.6 13.3-.4-10.4-.9 1.8-.2 29 .8-3V36.8l.3 8.2.5-1L4 33.8l-.2 15.6.7-1.8Zm1.8.2-.9.2-1.1 24.8.7-1.2.3-8 .3-.7-.2 8.3.8-.9Zm1.6 1.3a61 61 0 0 0-.6 21.3c.9.3 1.2-7.2 1.2-8.7l-1-1v3h.2v2.6l-.5.3.4-13.2.5.6-.2 4 .7 1c.4-6.8-.1-9.2-.6-9.8h-.1ZM9.8 26l-1 19 .7.8 1-17.8zm-3.5 2.9V34l-.3.2V29zm4.9 3a41 41 0 0 0-.6 16.6c.4 1.3.8-1.6.9-3.3l-.5-2-.2 2.3-.3-1.2.6-9 .3 1.1-.2 3.6.5 2.1a44.4 44.4 0 0 0-.5-10.2z"/>
 <path fill="#ec0" style="fill:url(#j)" d="M121.4 5.8v.7l29.7 5.3 1.7-1.6-6.9-1.2-.3.8Zm-.9 1.6-1.4.5 25.6 4.9 5.4-1-6-1-2.3.4zm-2.6 1-3.2.4 18.1 4.5h4.3l-6.2-1.5h1l8 1.4 3.3-.2Zm-12.5.4-3 .1V9c3.2 1 2.9 1 4 .9l13.3 3.2s6.8.3 9.2.2c2-.5-5.2-2-10.3-2.4 1.8-.5-6.1-2.2-13.2-2.1zm5.1.8 4.4 1h-2.1l-3.9-.8Zm13.1.4 5 1-1 .1-4.6-1zm-7.2 1.4h2.2l4.2 1h-2.4z"/>
 <path fill="#ec0" style="fill:url(#k)" d="M39.3 8.5c-7.1 0 17.6 5.5 23.6 5 4.6-.5-4-2-5.5-2.5l-5.1.3 3.3.7H57l2.3.5-1.7.2-13.4-3h2l4.2.9 4.4-.1a74 74 0 0 0-15.5-2Zm9 .2 19 4.4 4-.1-17.5-4.1ZM32.1 9l-4.4.6 25.2 5.6 2-.6-8.7-1.8h1l9 1.6 2.1-.4Zm29.1.2c-5.6.8 14.2 4.5 17.7 4.3 3.5-.2 1.9-.7-.1-1.4l-5.9-.4 2.5.7h-2l-8.3-2.2h2l3.4 1 6 .4a58 58 0 0 0-15.3-2.4Zm-37.8.6-2.3.5 13 3-13.1-2-.8 1 31.5 5.9.1-.9-16.8-3 10 1.4.2-.4-9-2 16.1 3 .7-.7zm14.6 1 5.9 1.3-1.2.1-5.4-1.3Z"/>
 <path fill="#ec0" style="fill:url(#l)" d="m160.1 40-3.2 3 7.2 28.3 7.8-5.9-1.6-6.6-3.9 3.4Zm-7.6 6.4-3.4 1.8 4.5 25.8 9.2-2.7-1.2-5.9L157 67zm-24 1.2-.2 4.5 1.1.2-.3 16s5 3.7 7.9 3.2c3.5-.5 2.9-9-.6-11.6 5.2-2.1 2.6-12.2-7.9-12.3zm17.7 2-5 .6-.8 22.7 4.8.8-.8-7 1.5-.2 1.3 8h4.7zm-13.9 3h1.7l.2 5-2-.4zm12.5 5.1.6 5.2-1.2.2-.3-5.2zM132.6 61l2 .8.1 4.8-2.1-.7z"/>
 <path fill="#ec0" style="fill:url(#m)" d="m62.4 30.3-6.3 1 .8 29 4.3-2-.8-9.5h1.4l1.5 9 4-1.3zm7.8 0C64 30.3 65 57 73 56.2c4-.4 5-3.9 5-11.2l-6-.4v4h1.7l.1 2.6h-2.2l-1.3-14.6 2.2.4.2 4.8 4.8.5c-.1-6.6-2.7-10.9-6.7-11.9h-.6Zm-18.8.7-5 2 .3 15-4.4-10.8-5.2 4 6.8 30.3 3.5-3.2L44 51.8l3.4 8.5 2-1.7V47.9l2.9 16.3 3.4-2.6zm27.3 2.7v22.1l4.3.6.2-20.7Zm9.4 5c-5.6 0-6 21.1.7 21.1 2.2 0 4.2-.4 5.4-5.4l-4.5-3-.2 3.4-1.7-.7 1-10.7 1.5.9-.3 4.3 4.2 3c.7-6.5-.7-11.2-5.2-12.8l-.9-.2zm-27.5.3 1 6-1.9.4-.2-6.2Z"/>
</svg>
