<svg xmlns="http://www.w3.org/2000/svg" width="200" height="200">
 <defs>
  <marker id="a" orient="auto" overflow="visible">
   <path d="m2.3 0-3.5 2v-4z"/>
  </marker>
 </defs>
 <g fill-opacity=".2">
  <circle cx="59" cy="26" r="16"/>
  <circle cx="145" cy="26" r="16"/>
  <path d="M22 86h160v32H22z"/>
 </g>
 <g stroke-width="2">
  <circle cx="57" cy="24" r="15" fill="#d5e8d4" stroke="#82b366"/>
  <circle cx="143" cy="24" r="15" fill="#f8cecc" stroke="#b85450"/>
  <g fill="none" stroke="#444" stroke-dasharray="2, 6" stroke-linecap="round">
   <circle cx="57" cy="176" r="15"/>
   <circle cx="143" cy="176" r="15"/>
  </g>
  <g stroke="#000" stroke-dasharray="8, 4" marker-end="url(#a)">
   <path d="M57 42v112"/>
   <path d="M143 42v112"/>
  </g>
  <path fill="#fff" stroke="#444" d="M21 85h158v30H21z"/>
 </g>
 <path d="M135 108V96.4h1.5V98q1.2-1.8 2.8-1.8 1.4 0 2.3 1.1.8 1.1.8 3 0 2.2-1 3.5T139 105q-1.4 0-2.4-1.2v4zm1.5-5.2q1.1 1.2 2.1 1.2t1.6-1q.6-.8.6-2.4 0-3-1.8-3-1.3 0-2.5 1.6zm-6 1q-1.4 1.3-2.8 1.3-1.2 0-2-.7-.7-.7-.7-1.7 0-1.3 1.2-2.1t3-.8h1V99q0-1-.4-1.3-.4-.4-1.3-.4-1.3 0-2.7.8v-1.4q1.6-.6 3-.6 1.7 0 2.3.7.7.6.7 2.2v3.6q0 .7.2 1 .1.3.6.3l.5-.1v1l-1 .2q-1.2 0-1.6-1.2zm-.3-1v-2h-.4q-3.2 0-3.2 1.7 0 .6.4 1t1.1.3q1 0 2.2-1zM115 105V95h1.9l2.2 6.2 2.2-6.2h1.9v10h-1.3v-8.6l-2.2 6.5h-1.3l-2.3-6.3v8.4zm-1.8-.3q-1.6.5-2.9.5-2.2 0-3.4-1.1-1.1-1.1-1.1-3.2 0-2 1-3.3 1.2-1.3 3-1.3 1.7 0 2.6 1.1.8 1 .8 3.3v.5h-5.8q.2 2.9 3.1 2.9 1.3 0 2.8-.6zm-5.7-4.7h4v-.2q0-2.3-1.9-2.3-.9 0-1.5.7-.5.6-.6 1.8zm-11 4.7v-1.4q1.7.8 3 .8 1 0 1.6-.4.6-.4.6-1 0-.7-1.4-1.2l-1.7-.5q-2-.7-2-2.2 0-1.2 1-1.8.8-.7 2.4-.7 1.2 0 2.8.4V98q-1.5-.5-2.8-.5-.8 0-1.3.3t-.5.8q0 .7 1.1 1l2 .7q1 .4 1.5 1 .4.5.4 1.3 0 1.2-1 1.9t-2.6.7q-1.5 0-3.1-.5zm-6.5.3V93.7h-3.3v-1.1h4.8v12.3zm-12.6 0V95H84v1.2h-5v3h4.5v1.2H79v3.5h5.6v1.2zm-9 0v-8.5H70V98q1.2-1.8 3.1-1.8l1.6.2V99h-1.1v-1.2l-.7-.1q-.8 0-1.5.4T70 99.4v5.5zm-7.2.2q-1.8 0-3-1.2-1-1.2-1-3.2t1.1-3.3q1-1.2 3-1.2 1.8 0 2.9 1.2 1 1.2 1 3.3 0 2-1 3.2-1.1 1.2-3 1.2zm0-1.1q1.1 0 1.8-1t.6-2.3q0-1.6-.6-2.4t-1.8-.9q-1 0-1.7.9t-.6 2.4q0 1.5.6 2.4.6.9 1.7.9zm-.4-75.7v1.4h-7.6q0-.6.2-1 .3-.8 1-1.5.6-.8 1.8-1.8 1.8-1.5 2.5-2.4.6-.9.6-1.7 0-.8-.6-1.4-.6-.6-1.5-.6-1 0-1.7.6-.6.6-.6 1.7l-1.4-.1q.1-1.7 1.1-2.5t2.6-.8q1.7 0 2.6.9t1 2.2q0 .7-.3 1.4t-1 1.4l-2 2q-1.4 1-1.7 1.4l-.6.8zm78.2 1.3V18.3h4.3q1.3 0 2.1.4.8.3 1.2 1 .5.7.5 1.5t-.4 1.4q-.4.7-1.2 1 1 .4 1.6 1.1.5.7.5 1.7 0 .8-.3 1.5t-.8 1-1.3.7l-1.8.1zm1.5-6.6h2.5q1 0 1.4-.2.6-.1 1-.5.2-.4.2-1t-.3-1q-.2-.5-.8-.6-.5-.2-1.7-.2h-2.3zm0 5.2h3.9l.9-.3q.4-.2.6-.6l.2-1q0-.7-.3-1.1-.4-.5-1-.7-.5-.2-1.6-.2h-2.7zM60.8 180v1.4h-7.6q0-.6.2-1 .3-.8 1-1.5.6-.8 1.8-1.8 1.8-1.5 2.5-2.4.6-.9.6-1.7 0-.8-.6-1.4-.6-.6-1.5-.6-1 0-1.7.6-.6.6-.6 1.7l-1.4-.1q.1-1.7 1.1-2.5t2.6-.8q1.7 0 2.6.9t1 2.2q0 .7-.3 1.4t-1 1.4l-2 2q-1.4 1-1.7 1.4l-.6.8zm81.2-4q-1.6-1.2-1.6-2.7 0-1.3 1-2 .8-.9 2.3-.9 1.4 0 2.2.7.8.6.8 1.8 0 1.8-2 3 1.4.9 2 1.6.5.7.5 1.7 0 1.5-1 2.4-1.1 1-2.8 1-1.6 0-2.6-.9t-1-2.3q0-2 2.2-3.4zm.8.6q-1.5 1.2-1.5 2.6 0 1 .7 1.6.6.6 1.6.6.9 0 1.4-.5.7-.5.7-1.3 0-1.3-1.8-2.4zm1-1.2q1.5-1 1.5-2.2 0-.7-.4-1.2-.5-.4-1.3-.4t-1.3.4q-.4.4-.4 1.1 0 1.1 1.5 2z"/>
</svg>
