<?xml version="1.0" encoding="UTF-8" standalone="no"?>
<svg xmlns="http://www.w3.org/2000/svg" viewBox="0 0 256 256" height="64" width="64">
  <path fill="#fff" d="M176.05 35.825C241.575 209 59.775 124.75 59.775 124.75S-10-33.125 176.05 35.825z"/>
  <path fill="#000" d="M110.45 37.85c-12.55 9.65-25.025 19.5-37.7 28.9-13.95 9-10.925 20.925 3.45 24.45 5.075 1 9.5-2.775 13.6-6.25 2.7-2 7.35-.025 7.825 2.675 1.675 10-2.325 21.675 3.825 30.7 6.75 6 13.475 6.5 19.575-1.575 2.7-6.9.85-14.825.6-22.175 12.55 6.125 40.625 8.475 36.9-21.3-5.25-14.025-15.9-21.675-25.35-29.6-7.7-5.5-14.7-11.85-22.725-5.85zm12.075 20.425c6.925 5.775 18.875 12.6 12.2 19.6-5.65 4.075-15.8-5.25-22.4-10.975zM128 0a128 128 0 100 256 128 128 0 000-256zm37.8 43.525c15.6 15.35 27.75 51.925 1.975 75.75-31 28.65-77.7 17.4-97.525 0-17.125-15-30.25-52.15-4.1-77.4 28.65-24.7 72.025-24.625 99.65 1.625z"/>
</svg>