<?xml version="1.0" encoding="UTF-8" standalone="no"?>
<svg xmlns="http://www.w3.org/2000/svg" viewBox="0 0 1024 256" height="160" width="640">
  <path fill="#888" d="M128 0a128 128 0 1 0 0 256 128 128 0 0 0 0-256z"/>
  <path fill="#fff" d="M136 57 96 44l-24 75 11 4 10-32 25 8 4 7-8 25 10 3 9-29-3-8 8-4 6-21zm-7 9 3 7-3 12-7 3-26-8 7-22zm-18-43a69 69 0 1 1 0 138 69 69 0 0 1 0-138z"/>
  <path fill="#fff" d="M873 49v133c0 32 23 30 46 30v-29c-7 0-15 1-15-9V49Zm70 13v34h-12v26h12v60c0 34 22 31 45 31v-30c-10 0-14 1-14-9v-52h14V96h-14V62ZM359 49v163h31v-65h19l37 65h37l-39-67c16-5 32-17 32-47 0-31-19-49-45-49zm55 29c21 0 30 2 30 20 0 24-16 19-54 19V79Zm257 16c-31 0-48 13-48 37 0 27 14 30 41 34 13 3 30 1 29 12 0 8-15 9-22 9-13-1-26-5-36-12l-19 24c19 13 36 16 55 16 38 0 49-19 50-38 0-20-9-31-30-34-13-3-25-2-37-6-7-4-3-9 1-11 16-5 33-1 47 7l18-23a87 87 0 0 0-49-15Zm74 2v72c0 30 15 46 40 46 12 0 21-6 27-19v17h31V96h-31v70c0 25-36 24-36 1V96Zm-194-2c-35 0-52 21-52 55v13c0 15 5 30 14 39 23 20 61 17 83-4l-20-18c-16 13-46 12-49-12h72v-8c0-39-16-64-48-65zm0 28c10 0 20 8 20 24h-44c0-17 12-24 24-24z"/>
</svg>