<svg xmlns="http://www.w3.org/2000/svg" width="200" height="200">
 <defs>
  <marker id="a" orient="auto" overflow="visible">
   <path d="m2.3 0-3.5 2v-4z"/>
  </marker>
 </defs>
 <g fill-opacity=".2">
  <circle cx="59" cy="26" r="16"/>
  <circle cx="145" cy="26" r="16"/>
  <circle cx="102" cy="26" r="16"/>
  <circle cx="59" cy="178" r="16"/>
  <circle cx="145" cy="178" r="16"/>
  <circle cx="102" cy="178" r="16"/>
  <path d="M22 86h160v32H22z"/>
 </g>
 <g stroke-width="2">
  <g fill="#d5e8d4" stroke="#82b366">
   <circle cx="57" cy="24" r="15"/>
   <circle cx="57" cy="176" r="15"/>
   <circle cx="100" cy="176" r="15"/>
  </g>
  <g fill="#f8cecc" stroke="#b85450">
   <circle cx="143" cy="24" r="15"/>
   <circle cx="100" cy="24" r="15"/>
   <circle cx="143" cy="176" r="15"/>
  </g>
  <g stroke="#000" stroke-dasharray="8, 4" marker-end="url(#a)">
   <path d="M57 42v112"/>
   <path d="M100 42v112"/>
   <path d="M143 42v112"/>
  </g>
  <path fill="#fff" stroke="#444" d="M21 85h158v30H21z"/>
 </g>
 <path d="M130 106V93.7h1.5v7.9l3.6-4h1.7l-3.4 3.8 4.2 4.6h-2l-4-4.4v4.4zm-2.7-.3q-1.4.5-2.7.5-2.2 0-3.4-1.2-1.2-1.1-1.2-3.2t1.1-3.3q1.2-1.2 3.3-1.2 1.4 0 2.7.4V99q-1.5-.5-2.5-.5-1.4 0-2.2.9-.8.8-.8 2.4 0 1.5.8 2.4.9.8 2.4.8 1.1 0 2.5-.5zm-11.7-.7q-1.4 1.1-2.8 1.1-1.1 0-1.9-.6-.8-.7-.8-1.7 0-1.3 1.2-2.1t3.1-.8h1v-.7q0-1-.4-1.3-.4-.4-1.4-.4-1.3 0-2.7.7V98q1.6-.6 3-.6 1.7 0 2.3.7.7.6.7 2.2v3.5q0 .8.2 1 .1.4.6.4l.5-.1.1 1-1.2.2q-1.1 0-1.5-1.2zm-.2-1v-2.2h-.5q-3.2 0-3.2 1.7 0 .7.5 1t1 .4q1 0 2.2-1zm-14.5 2V96h3.2q3.5 0 3.5 2.3 0 1-.6 1.6-.6.6-1.7.9 2.8.6 2.8 2.6 0 1.2-.8 1.9-.5.4-1.2.6l-2.2.1zm1.5-5.7h.5q3.2 0 3.2-1.7 0-.9-.6-1.2t-2.4-.3h-.7zm0 4.5h1.4q1.5 0 2-.3.7-.3.7-1.1 0-1-1-1.6-1-.5-2.5-.5h-.6zm-8 1.2V94.8h-3.3v-1.2H96V106zm-9.6 0V94.8h-3.3v-1.2h4.8V106zm-7.8-1q-1.4 1.1-2.8 1.1-1.1 0-1.9-.6-.7-.7-.7-1.7 0-1.3 1.1-2.1 1.2-.8 3.1-.8h1v-.7q0-1-.4-1.3-.4-.4-1.3-.4-1.4 0-2.8.7V98q1.6-.6 3-.6 1.7 0 2.4.7.6.6.6 2.2v3.5q0 .8.2 1 .2.4.6.4l.5-.1.1 1-1.1.2q-1.2 0-1.6-1.2zm-.2-1v-2.2h-.5q-3.1 0-3.1 1.7 0 .7.4 1t1 .4q1 0 2.2-1zm-12.4 2v-7.1H62v-1.2h2.3v-.9q0-1.8.8-2.6.8-.7 2.7-.7 1.3 0 2.4.3V95q-1.1-.4-2.2-.4-1.2 0-1.7.5-.5.4-.5 1.5v1.1h4V99h-4v7.1zM138 29.7V18.3h4q1.3 0 2 .2 1 .2 1.7.8.9.7 1.3 2 .5 1.1.5 2.7 0 1.3-.3 2.3-.3 1-.8 1.6-.5.7-1 1-.6.5-1.4.7l-1.9.1zm1.5-1.4h2.5q1 0 1.7-.2t1-.6q.6-.5.9-1.4.3-1 .3-2.2 0-1.8-.6-2.8-.6-1-1.4-1.3-.6-.2-2-.2h-2.4zm-78.7.1v1.4h-7.6q0-.6.2-1 .3-.8 1-1.5.6-.8 1.8-1.8 1.8-1.5 2.5-2.4.6-.9.6-1.7 0-.8-.6-1.4-.6-.6-1.5-.6-1 0-1.7.6-.6.6-.6 1.7l-1.4-.1q.1-1.7 1.1-2.5t2.6-.8q1.7 0 2.6.9t1 2.2q0 .7-.3 1.4t-1 1.4l-2 2q-1.4 1-1.7 1.4l-.6.8zm34.9 1.3V18.3h4.3q1.3 0 2.1.4.8.3 1.2 1 .5.7.5 1.5t-.4 1.4q-.4.7-1.2 1 1 .4 1.6 1.1.5.7.5 1.7 0 .8-.3 1.5t-.8 1-1.3.7l-1.8.1zm1.5-6.6h2.5q1 0 1.4-.2.6-.1 1-.5.2-.4.2-1t-.3-1q-.2-.5-.7-.6-.6-.2-1.8-.2h-2.3zm0 5.2h3.9l.9-.3q.4-.2.6-.6l.2-1q0-.7-.3-1.1-.4-.5-1-.7-.5-.2-1.6-.2h-2.7zm-1 150.7 1.5-.1q.1 1 .7 1.6.6.5 1.5.5 1 0 1.7-.7.7-.8.7-2 0-1.3-.7-2t-1.7-.7q-.7 0-1.3.4-.5.3-.8.8l-1.4-.2 1.2-5.9h5.7v1.3h-4.6l-.6 3.1q1-.7 2.1-.7 1.5 0 2.6 1t1 2.7q0 1.6-1 2.7-1 1.4-3 1.4-1.5 0-2.5-.9t-1.1-2.3zm41.8 3v-11.4h4q1.3 0 2 .2 1 .2 1.7.8.9.7 1.3 2 .5 1.1.5 2.7 0 1.3-.3 2.3t-.8 1.6q-.5.7-1 1-.6.5-1.4.7l-1.9.1zm1.5-1.4h2.5q1 0 1.7-.2t1-.6q.6-.5.9-1.4.3-1 .3-2.2 0-1.8-.6-2.8-.6-1-1.4-1.3-.6-.2-2-.2h-2.4zm-78.7-.6v1.4h-7.6q0-.6.2-1 .3-.8 1-1.5.6-.8 1.8-1.8 1.8-1.5 2.5-2.4.6-.9.6-1.7 0-.8-.6-1.4-.6-.6-1.5-.6-1 0-1.7.6-.6.6-.6 1.7l-1.4-.1q.1-1.7 1.1-2.5t2.6-.8q1.7 0 2.6.9t1 2.2q0 .7-.3 1.4t-1 1.4l-2 2q-1.4 1-1.7 1.4l-.6.8z"/>
</svg>
