<svg xmlns="http://www.w3.org/2000/svg" width="200" height="200">
 <defs>
  <marker id="a" orient="auto" overflow="visible">
   <path d="m2.3 0-3.5 2v-4z"/>
  </marker>
 </defs>
 <g fill-opacity=".2">
  <circle cx="37.5" cy="26" r="16"/>
  <circle cx="80.5" cy="26" r="16"/>
  <circle cx="37.5" cy="178" r="16"/>
  <circle cx="80.5" cy="178" r="16"/>
  <circle cx="166" cy="26" r="16"/>
  <circle cx="124" cy="26" r="16"/>
  <circle cx="166" cy="178" r="16"/>
  <circle cx="124" cy="178" r="16"/>
  <path d="M22 86h160v32H22z"/>
 </g>
 <g stroke-width="2">
  <g fill="#d5e8d4" stroke="#82b366">
   <circle cx="35.5" cy="24" r="15"/>
   <circle cx="78.5" cy="24" r="15"/>
   <circle cx="35.5" cy="176" r="15"/>
   <circle cx="122" cy="176" r="15"/>
  </g>
  <g fill="#f8cecc" stroke="#b85450">
   <circle cx="78.5" cy="176" r="15"/>
   <circle cx="164" cy="24" r="15"/>
   <circle cx="122" cy="24" r="15"/>
   <circle cx="164" cy="176" r="15"/>
  </g>
  <g stroke="#000" stroke-dasharray="8, 4" marker-end="url(#a)">
   <path d="M35.5 42v112"/>
   <path d="M78.5 42v112"/>
   <path d="M122 42v112"/>
   <path d="M164 42v112"/>
  </g>
  <path fill="#fff" stroke="#444" d="M21 85h158v30H21z"/>
 </g>
 <path fill="red" d="M38.5 176c2-.8 4.3.5 4.8 2.6.4 1.5-.4 3.2-1.7 4a3.7 3.7 0 0 1-5.5-2.8c-.2-1.6.8-3.3 2.4-3.8zm-7.7 0c2.2-.4 4.5 1.7 4.2 4a3.8 3.8 0 0 1-4 3.3c-2-.2-3.8-2.3-3.3-4.3a3.7 3.7 0 0 1 3.1-3z"/>
 <path fill="#82b366" d="m30.8 176 .1-1.3a8 8 0 0 1 7.4-6.5c.7 0 1.3.2 1.8.5s1 .7 1.3 1.3l1.8 3v.3a4 4 0 0 1-2.4.3c-.6-.2-1.1-.4-1.6-.8-1-.9-1.6-2.3-2.2-3.2-.7 0-1.3.4-1.8.8-.2.1-.1.3 0 .4 1 1.8 2.2 3.6 3.4 5.4.1.3-.7.7-1 .5l-3.4-5.3h-.3a7 7 0 0 0-2 4.6c0 .3-1 .3-1 0zm99.2 4c-3 4.5-9.2 6-13.1 1.9-4-4.2-2.9-10.1 1.4-13.2z"/>
 <path fill="#fff3d7" d="M119 170c-3.9 3.3-4.5 7.7-1 11.3 3.3 3.1 7.7 2 11-1.4z"/>
 <path fill="red" d="M120 170c-3.5 3-4.2 6.4-1.3 10 3.7 3.3 7 1.9 10-1.2z"/>
 <path d="M125 108V96.4h1.5V98q1.2-1.8 2.8-1.8 1.4 0 2.3 1.1.8 1.1.8 3 0 2.2-1 3.5T129 105q-1.4 0-2.4-1.2v4zm1.5-5.2q1.1 1.2 2.2 1.2 1 0 1.5-1 .6-.8.6-2.4 0-3-1.8-3-1.3 0-2.5 1.6zm-6 1q-1.4 1.3-2.8 1.3-1.2 0-2-.7-.7-.7-.7-1.7 0-1.3 1.2-2.1t3-.8h1V99q0-1-.4-1.3-.4-.4-1.3-.4-1.3 0-2.7.8v-1.4q1.6-.6 3-.6 1.7 0 2.3.7.7.6.7 2.2v3.6q0 .7.2 1 .1.3.6.3l.5-.1v1l-1 .2q-1.2 0-1.6-1.2zm-.3-1v-2h-.4q-3.2 0-3.2 1.7 0 .6.4 1t1.1.3q1 0 2.2-1zM105 105V95h1.9l2.2 6.2 2.2-6.2h1.9v10h-1.3v-8.6l-2.2 6.5h-1.3l-2.3-6.3v8.4zm-1.7 0-2.3.2q-1.8 0-2.5-.7-.7-.6-.7-2.5v-4.1h-2.1v-1.2h2.1v-1.8h1.6v1.8h3.7v1.2h-3.7v5.3q.1.3.4.5.6.4 1.6.4t1.9-.3zm-11.7-1q-1.4 1.2-2.8 1.2-1.2 0-2-.7-.7-.7-.7-1.7 0-1.3 1.2-2.1t3-.8h1V99q0-1-.4-1.3-.4-.4-1.3-.4-1.3 0-2.8.7v-1.3q1.7-.6 3.1-.6 1.6 0 2.3.7.7.6.7 2.2v3.5l.1 1.1q.2.3.7.3l.4-.1.2 1-1.2.2q-1.1 0-1.5-1.2zm-.3-1v-2.2H91q-3.2 0-3.2 1.8 0 .6.4 1t1.1.3q1 0 2.1-1zM80 105V93.7h-3.2v-1.2h4.8v12.3zm-10.8 0v-7.1H67v-1.2h2.3v-.9q0-1.8.9-2.5.8-.8 2.7-.8 1.2 0 2.4.3V94q-1.2-.4-2.3-.4-1.2 0-1.7.5-.4.4-.4 1.6v1h4v1.2h-4v7.1zM160 29.7V18.3h4q1.3 0 2 .2 1 .2 1.7.8.9.7 1.3 2 .5 1.1.5 2.7 0 1.3-.3 2.3t-.8 1.6q-.5.7-1 1-.6.5-1.4.7l-1.9.1zm1.5-1.4h2.5q1 0 1.7-.2t1-.6q.6-.5.9-1.4.3-1 .3-2.2 0-1.8-.6-2.8-.6-1-1.4-1.3-.6-.2-2-.2h-2.4zm-82 1.4V27h-5v-1.3l5.3-7.4h1.1v7.4h1.6V27h-1.6v2.7zm0-4v-5.2l-3.6 5.2zm-40.2 2.7v1.4h-7.6q0-.6.2-1 .3-.8 1-1.5.6-.8 1.8-1.8 1.8-1.5 2.5-2.4.6-.9.6-1.7 0-.8-.6-1.4-.6-.6-1.5-.6-1 0-1.7.6-.6.6-.6 1.7l-1.4-.1q0-1.7 1-2.6t2.6-.8q1.7 0 2.6.9t1 2.2q0 .7-.3 1.4t-1 1.4l-2 2q-1.4 1-1.7 1.4l-.6.8zm77.7 1.3V18.3h4.3q1.3 0 2.1.4.8.3 1.2 1 .5.7.5 1.5t-.4 1.4q-.4.7-1.2 1 1 .4 1.6 1.1.5.7.5 1.7 0 .8-.3 1.5t-.8 1-1.3.7l-1.8.1zm1.5-6.6h2.5q1 0 1.4-.2.6-.1 1-.5.2-.4.2-1t-.3-1q-.2-.5-.7-.6-.6-.2-1.8-.2h-2.3zm0 5.2h3.9l.9-.3q.4-.2.6-.6l.2-1q0-.7-.3-1.1-.4-.5-1-.7-.5-.2-1.6-.2h-2.7zM78.5 168c-.5 0-1.2.2-1.6.7l-5.5 6.6c-.3.4-1.8 2.2.3 4.5 1.3 1.3 4.5 1.6 5.7-1.8.1 2.1 0 3.7-2.2 3.9-.6.1-.9.2-1 .9.1.7.3.8 1 1h6.7c.6-.2.8-.3.9-1-.1-.7-.3-.8-1-.9-2.2-.2-2.3-1.8-2.2-4 1.2 3.5 4.4 3.2 5.7 2 2.1-2.4.6-4.2.3-4.6l-5.5-6.6a2 2 0 0 0-1.6-.7zm42.3 4.5c-.5 0-.8.6-.5 1 .2.4.8.3 1 0 .3-.5 0-1-.5-1zm2.3 2.3c-.5 0-.8.6-.5 1 .2.4.8.3 1 0 .3-.4 0-1-.5-1zm-3 .9c-.5 0-.8.5-.6 1 .3.3.9.3 1-.1.3-.4 0-1-.5-1zm5.3 1.5c-.4 0-.7.6-.5 1 .3.3.9.3 1-.1.3-.4 0-1-.5-.9zm-3.1.7c-.5 0-.8.7-.4 1 .2.4.8.3 1-.1.2-.4-.2-.9-.6-.9zM164 168c-2.5.1-4 1.8-3.8 4.6-2 0-3.7.8-4 3.7 0 3 3.6 5.2 6.6 2.5.3 2.2-.5 2.8-2.1 3.1-.6.1-.9.2-1 .9.1.7.3.8 1 1h6.7c.6-.2.8-.3.9-1-.1-.7-.3-.8-1-.9-1.6-.3-2.4-.9-2.1-3 3 2.6 6.6.5 6.7-2.6-.4-3-2-3.7-4.1-3.7.2-2.8-1.3-4.5-3.8-4.6z"/>
</svg>
