<svg xmlns="http://www.w3.org/2000/svg" width="200" height="200">
 <defs>
  <marker id="a" orient="auto" overflow="visible">
   <path d="m2.3 0-3.5 2v-4z"/>
  </marker>
 </defs>
 <g fill-opacity=".2">
  <circle cx="59" cy="26" r="16"/>
  <circle cx="145" cy="26" r="16"/>
  <path d="M22 86h160v32H22z"/>
 </g>
 <g stroke-width="2">
  <circle cx="57" cy="24" r="15" fill="#d5e8d4" stroke="#82b366"/>
  <circle cx="143" cy="24" r="15" fill="#f8cecc" stroke="#b85450"/>
  <g stroke="#000" stroke-dasharray="8, 4" marker-end="url(#a)">
   <path d="M57 42v112"/>
   <path d="M143 42v112"/>
  </g>
  <g stroke="#444">
   <path fill="#fff" d="M21 85h158v30H21z"/>
   <path fill="none" stroke-dasharray="2, 4" stroke-dashoffset="2" d="M25 162h64v32H25zm86 0h64v32h-64z"/>
  </g>
 </g>
 <path d="M147 104q-1.6.5-3 .5-2.1 0-3.3-1-1.2-1.2-1.2-3.3 0-2 1.1-3.3 1.2-1.2 3-1.2 1.7 0 2.5 1t.8 3.3v.5h-5.7q.1 2.9 3 2.9 1.3 0 2.8-.6zm-5.8-4.7h4.1v-.2q0-2.3-2-2.3-.8 0-1.4.7-.6.6-.7 1.8zm-10 5V96h1.6v1.5q1.1-1.7 3.1-1.7l1.6.2v2.4h-1.2V97h-.6q-.9 0-1.6.3-.6.4-1.4 1.4v5.5zm-3.8-8.4v8.4h-1.6v-1.5q-1 1.7-2.9 1.7-2.4 0-2.4-2.8v-5.8h1.6v5.3q0 1 .3 1.5.3.4 1 .4 1.2 0 2.4-1.7v-5.5zm-13.2 8.4V93.1h-3.3V92h4.8v12.3zm-9.8 0V97h-3.1v-1h4.6v8.4zm-.2-10.4V92h1.9v2zm-7.4 9.4q-1.4 1.2-2.8 1.2-1.2 0-2-.7-.7-.6-.7-1.7 0-1.3 1.2-2 1.2-.9 3.1-.9h1v-.7q0-.9-.4-1.3t-1.4-.4q-1.3 0-2.7.8v-1.3q1.6-.6 3-.6 1.7 0 2.3.6.7.7.7 2.2v3.6q0 .8.2 1 .1.3.6.3h.5l.1.9-1.2.2q-1.1 0-1.5-1.2zm-.2-1v-2.1H96q-3.2 0-3.2 1.7 0 .6.4 1t1.1.4q1 0 2.2-1zm-14 2v-10h7v1.2h-5.5v3.4h4.8v1.2H84v4.3zm-3 0-2.2.2q-2 0-2.6-.6-.7-.7-.7-2.6v-4H72V96h2.1v-1.9h1.6V96h3.7v1.1h-3.7v5.4l.4.4q.6.4 1.6.4l2-.2zm-9.7-.3q-1.6.5-3 .5-2.1 0-3.3-1-1.2-1.2-1.2-3.3 0-2 1.2-3.3 1-1.2 2.8-1.2 1.8 0 2.6 1 .9 1 .9 3.3v.5H64q.2 2.9 3.1 2.9 1.2 0 2.7-.6zm-5.8-4.7h4.1v-.2q0-2.3-1.9-2.3-1 0-1.5.7-.6.7-.7 1.8zm-10.8 7.9.2-1.3q1.4.6 2.6.6 2.4 0 2.4-2.4l.1-1.5q-1 1.8-2.8 1.8-1.4 0-2.3-1.1-.9-1.2-.9-3 0-2 1-3.3 1-1.3 2.6-1.3 1.3 0 2.5 1.1v-1H60v6.9q0 1.6-.2 2.4-.2.9-.8 1.5-1 1-3 1-1.3 0-2.8-.4zm5.3-5.9V98q-1-1.2-2.2-1.2-1 0-1.6 1t-.5 2.4q0 1.3.5 2 .5.8 1.4.8 1.3 0 2.4-1.7zm2.2-72.9v1.4h-7.6q0-.6.2-1 .3-.8 1-1.5.6-.8 1.8-1.8 1.8-1.5 2.5-2.4.6-.9.6-1.7 0-.8-.6-1.4-.6-.6-1.5-.6-1 0-1.7.6-.6.6-.6 1.7l-1.4-.1q.1-1.7 1.1-2.5t2.6-.8q1.7 0 2.6.9t1 2.2q0 .7-.3 1.4t-1 1.4l-2 2q-1.4 1-1.7 1.4l-.6.8zm78.2 1.3V18.3h4.3q1.3 0 2.1.4.8.3 1.2 1 .5.7.5 1.5t-.4 1.4q-.4.7-1.2 1 1 .4 1.6 1.1.5.7.5 1.7 0 .8-.3 1.5t-.8 1-1.3.7l-1.8.1zm1.5-6.6h2.5q1 0 1.4-.2.6-.1 1-.5.2-.4.2-1t-.3-1q-.2-.5-.8-.6-.5-.2-1.7-.2h-2.3zm0 5.2h3.9l.9-.3q.4-.2.6-.6l.2-1q0-.7-.3-1.1-.4-.5-1-.7-.5-.2-1.6-.2h-2.7zM72.2 185v-1.2h.6q.9 0 1.3-.2.4-.3.8-1.3l.4-.8-3.5-8h1.5l2.8 6.3 2.8-6.4h1.4L76 183q-.5 1.1-1.2 1.6-.7.4-2 .4zm-2.1-3-2.3.1q-1.8 0-2.5-.7-.7-.6-.7-2.5v-4.1h-2.1v-1.2h2v-1.8h1.6v1.8H70v1.2h-3.8v4.3l.1 1q.1.3.4.5.5.4 1.6.4 1 0 1.9-.3zm-12.5-8.8c-1.1 0-2 .6-2.8 1.8v-1.6h-1.5V185h1.5v-4a3 3 0 0 0 2.2 1c1 0 2-.4 2.6-1.3.6-.8 1-2 1-3.4a5 5 0 0 0-.9-3 2.7 2.7 0 0 0-2.2-1.1zm-.4 1.4c1.2 0 1.8 1 1.8 3 0 1-.2 1.9-.5 2.5a2 2 0 0 1-1.6.9c-.7 0-1.4-.4-2.1-1.2v-3.6c.8-1.1 1.6-1.6 2.4-1.6zM43 181.9v-8.5h1.4v1.6q1-1.7 1.9-1.7 1.1 0 1.5 1.7.8-1.7 2-1.7.7 0 1 .5.4.6.4 2v6.1h-1.3v-6.1l-.1-1q-.1-.3-.4-.2-.7 0-1.6 1.9v5.4h-1.3v-5.8l-.1-1.2q-.1-.3-.4-.3-.4 0-.8.5-.5.6-.8 1.4v5.4zm-5.2-8.6a4 4 0 0 0-3 1.2c-.7.9-1 2-1 3.3 0 1.4.4 2.4 1.1 3.2.8.7 2 1.1 3.4 1.1.9 0 1.9-.2 3-.5v-1.2c-1 .4-2 .6-2.8.6-2 0-3-1-3-3H41v-.4c0-1.5-.3-2.6-.8-3.3-.6-.7-1.5-1-2.6-1zm-.2 1.1c1.3 0 2 .8 2 2.3v.2h-4.1c0-.8.3-1.4.6-1.8a2 2 0 0 1 1.5-.7zM139 184v-11.4h4.3q1.3 0 2.1.4.8.3 1.2 1 .5.7.5 1.5t-.4 1.4q-.4.7-1.2 1 1 .4 1.6 1.1.5.7.5 1.7 0 .8-.3 1.5t-.8 1-1.3.7l-1.8.1zm1.5-6.6h2.5q1 0 1.4-.2.6-.1 1-.5.2-.4.2-1t-.3-1q-.2-.5-.8-.6-.5-.2-1.7-.2h-2.3zm0 5.3h2.9l1-.1.9-.3.6-.6.2-1q0-.7-.3-1.1-.4-.5-1-.7-.5-.2-1.6-.2h-2.7z"/>
</svg>
